<?xml version="1.0" encoding="utf-8"?>
<!-- Generator: Adobe Illustrator 23.0.0, SVG Export Plug-In . SVG Version: 6.00 Build 0)  -->
<svg version="1.1" id="图层_1" xmlns="http://www.w3.org/2000/svg" xmlns:xlink="http://www.w3.org/1999/xlink" x="0px" y="0px"
	 viewBox="0 0 642 195.44" style="enable-background:new 0 0 642 195.44;" xml:space="preserve">
<style type="text/css">
	.st0{opacity:0.2;fill:#F6A5C0;}
	.st1{opacity:0.2;fill:#93CF96;}
	.st2{fill:none;stroke:#E57265;stroke-width:0.22;stroke-linecap:round;stroke-linejoin:round;stroke-miterlimit:10;}
	.st3{fill:none;stroke:#78A0C4;stroke-width:0.22;stroke-linecap:round;stroke-linejoin:round;stroke-miterlimit:10;}
	.st4{fill:none;stroke:#78A0C4;stroke-width:0.82;stroke-linecap:round;stroke-linejoin:round;stroke-miterlimit:10;}
	.st5{fill:none;stroke:#E57265;stroke-width:0.82;stroke-linecap:round;stroke-linejoin:round;stroke-miterlimit:10;}
	.st6{fill:#8F8F8F;}
	.st7{fill:#E57265;}
	.st8{fill:#00008B;}
	.st9{font-family:'TimesNewRomanPSMT';}
	.st10{font-size:0.9232px;}
	.st11{font-family:'Arial-BoldMT';}
	.st12{font-size:6.4622px;}
	.st13{fill:none;stroke:#E57265;stroke-width:1.5;stroke-linecap:round;stroke-linejoin:round;stroke-miterlimit:10;}
	.st14{fill:none;stroke:#78A0C4;stroke-width:1.5;stroke-linecap:round;stroke-linejoin:round;stroke-miterlimit:10;}
	.st15{font-family:'ArialMT';}
	.st16{font-size:5.5391px;}
	.st17{fill:none;stroke:#000000;stroke-width:0.75;stroke-linecap:round;stroke-linejoin:round;stroke-miterlimit:10;}
</style>
<g>
	<polygon class="st0" points="138.71,183.14 136.35,183.1 134.01,183.03 131.66,182.94 129.31,182.82 126.97,182.67 124.63,182.5 
		122.29,182.3 119.96,182.08 117.64,181.83 115.33,181.55 113.02,181.24 110.73,180.91 108.44,180.56 106.16,180.18 103.89,179.77 
		101.63,179.34 99.39,178.88 97.16,178.39 94.94,177.89 92.73,177.35 90.54,176.79 88.37,176.21 86.21,175.6 84.07,174.97 
		81.94,174.31 79.84,173.63 77.75,172.93 75.68,172.2 73.63,171.45 71.6,170.68 69.6,169.88 67.62,169.07 65.65,168.22 
		63.71,167.36 61.79,166.47 59.9,165.57 58.04,164.64 56.2,163.69 54.38,162.72 52.59,161.73 50.82,160.72 49.09,159.69 
		47.38,158.64 45.7,157.57 44.06,156.49 42.44,155.38 40.84,154.26 39.28,153.11 37.75,151.95 36.26,150.78 34.79,149.59 
		33.36,148.38 31.96,147.15 30.59,145.91 29.26,144.66 27.96,143.38 26.7,142.1 25.47,140.8 24.27,139.49 23.11,138.16 
		21.99,136.82 20.9,135.47 19.85,134.1 18.84,132.73 17.87,131.34 16.92,129.94 16.02,128.53 15.16,127.12 14.34,125.69 
		13.55,124.25 12.81,122.8 12.1,121.35 11.43,119.89 10.8,118.42 10.21,116.95 9.66,115.47 9.15,113.97 8.68,112.48 8.25,110.98 
		7.86,109.48 7.52,107.97 7.21,106.46 6.94,104.95 6.72,103.43 6.53,101.91 6.39,100.39 6.29,98.87 6.22,97.34 6.21,95.82 
		6.22,94.29 6.29,92.77 6.39,91.25 6.53,89.73 6.72,88.2 6.94,86.69 7.21,85.18 7.52,83.66 7.86,82.16 8.25,80.65 8.68,79.15 
		9.15,77.66 9.66,76.17 10.21,74.69 10.8,73.22 11.43,71.74 12.1,70.29 12.81,68.83 13.55,67.39 14.34,65.95 15.16,64.52 
		16.02,63.1 16.92,61.7 17.87,60.3 18.84,58.91 19.85,57.53 20.9,56.17 21.99,54.82 23.11,53.48 24.27,52.15 25.47,50.84 
		26.7,49.54 27.96,48.25 29.26,46.98 30.59,45.72 31.96,44.48 33.36,43.26 34.79,42.05 36.26,40.85 37.75,39.68 39.28,38.52 
		40.84,37.38 42.44,36.26 44.06,35.15 45.7,34.06 47.38,32.99 49.09,31.95 50.82,30.92 52.59,29.91 54.38,28.92 56.2,27.95 
		58.04,27 59.9,26.07 61.79,25.17 63.71,24.28 65.65,23.42 67.62,22.57 69.6,21.75 71.6,20.96 73.63,20.18 75.68,19.43 77.75,18.71 
		79.84,18 81.94,17.32 84.07,16.67 86.21,16.03 88.37,15.43 90.54,14.84 92.73,14.29 94.94,13.75 97.16,13.24 99.39,12.76 
		101.63,12.3 103.89,11.87 106.16,11.46 108.44,11.08 110.73,10.72 113.02,10.39 115.33,10.09 117.64,9.81 119.96,9.56 122.29,9.33 
		124.63,9.13 126.97,8.96 129.31,8.82 131.66,8.7 134.01,8.6 136.35,8.54 138.71,8.5 	"/>
	<polygon class="st1" points="154.55,8.48 156.9,8.5 159.25,8.54 161.6,8.6 163.95,8.7 166.3,8.82 168.64,8.96 170.98,9.13 
		173.31,9.33 175.65,9.56 177.97,9.81 180.28,10.09 182.59,10.39 184.88,10.72 187.17,11.08 189.45,11.46 191.72,11.87 193.97,12.3 
		196.22,12.76 198.45,13.24 200.67,13.75 202.87,14.29 205.07,14.84 207.24,15.43 209.4,16.03 211.54,16.67 213.67,17.32 215.77,18 
		217.86,18.71 219.93,19.43 221.97,20.18 224.01,20.96 226.01,21.75 227.99,22.57 229.96,23.42 231.9,24.28 233.81,25.17 
		235.71,26.07 237.57,27 239.41,27.95 241.23,28.92 243.02,29.91 244.79,30.92 246.52,31.95 248.23,32.99 249.91,34.06 
		251.55,35.15 253.17,36.26 254.77,37.38 256.33,38.52 257.85,39.68 259.35,40.85 260.82,42.05 262.25,43.26 263.65,44.48 
		265.02,45.72 266.35,46.98 267.65,48.25 268.91,49.54 270.14,50.84 271.34,52.15 272.5,53.48 273.62,54.82 274.71,56.17 
		275.75,57.53 276.77,58.91 277.74,60.3 278.69,61.7 279.59,63.1 280.45,64.52 281.27,65.95 282.06,67.39 282.8,68.83 283.51,70.29 
		284.18,71.74 284.81,73.22 285.4,74.69 285.95,76.17 286.46,77.66 286.92,79.15 287.35,80.65 287.74,82.16 288.09,83.66 
		288.4,85.18 288.66,86.69 288.89,88.2 289.08,89.73 289.22,91.25 289.32,92.77 289.39,94.29 289.4,95.82 289.39,97.34 
		289.32,98.87 289.22,100.39 289.08,101.91 288.89,103.43 288.66,104.95 288.4,106.46 288.09,107.97 287.74,109.48 287.35,110.98 
		286.92,112.48 286.46,113.97 285.95,115.47 285.4,116.95 284.81,118.42 284.18,119.89 283.51,121.35 282.8,122.8 282.06,124.25 
		281.27,125.69 280.45,127.12 279.59,128.53 278.69,129.94 277.74,131.34 276.77,132.73 275.75,134.1 274.71,135.47 273.62,136.82 
		272.5,138.16 271.34,139.49 270.14,140.8 268.91,142.1 267.65,143.38 266.35,144.66 265.02,145.91 263.65,147.15 262.25,148.38 
		260.82,149.59 259.35,150.78 257.85,151.95 256.33,153.11 254.77,154.26 253.17,155.38 251.55,156.49 249.91,157.57 248.23,158.64 
		246.52,159.69 244.79,160.72 243.02,161.73 241.23,162.72 239.41,163.69 237.57,164.64 235.71,165.57 233.81,166.47 231.9,167.36 
		229.96,168.22 227.99,169.07 226.01,169.88 224.01,170.68 221.97,171.45 219.93,172.2 217.86,172.93 215.77,173.63 213.67,174.31 
		211.54,174.97 209.4,175.6 207.24,176.21 205.07,176.79 202.87,177.35 200.67,177.89 198.45,178.39 196.22,178.88 193.97,179.34 
		191.72,179.77 189.45,180.18 187.17,180.56 184.88,180.91 182.59,181.24 180.28,181.55 177.97,181.83 175.65,182.08 173.31,182.3 
		170.98,182.5 168.64,182.67 166.3,182.82 163.95,182.94 161.6,183.03 159.25,183.1 156.9,183.14 154.55,183.15 	"/>
	<line class="st2" x1="86.84" y1="93.49" x2="87.08" y2="86.59"/>
	<line class="st3" x1="82.59" y1="84.32" x2="86.4" y2="85.61"/>
	<line class="st3" x1="85.07" y1="89.42" x2="86.73" y2="86.49"/>
	<line class="st2" x1="85.22" y1="91.84" x2="89.86" y2="90.88"/>
	<line class="st3" x1="74.54" y1="102.52" x2="77.45" y2="102.13"/>
	<line class="st2" x1="76.01" y1="97.54" x2="77.86" y2="101.36"/>
	<line class="st4" x1="94.39" y1="145.41" x2="78.44" y2="102.73"/>
	<line class="st2" x1="81.05" y1="97.32" x2="78.57" y2="101.4"/>
	<line class="st2" x1="77.51" y1="85.26" x2="75.54" y2="88.02"/>
	<line class="st3" x1="70.43" y1="85.65" x2="74.48" y2="88.23"/>
	<line class="st2" x1="75.63" y1="96.13" x2="75.16" y2="89.36"/>
	<line class="st5" x1="122.47" y1="111.06" x2="75.78" y2="88.94"/>
	<line class="st3" x1="78.7" y1="90.07" x2="75.79" y2="88.9"/>
	<line class="st3" x1="79.49" y1="87.77" x2="75.83" y2="88.48"/>
	<line class="st2" x1="75" y1="81.31" x2="77.45" y2="84.1"/>
	<line class="st2" x1="79.21" y1="91.56" x2="78.07" y2="85.39"/>
	<line class="st2" x1="80.34" y1="78.6" x2="78.21" y2="83.97"/>
	<line class="st2" x1="77.01" y1="80.2" x2="77.79" y2="83.93"/>
	<line class="st5" x1="123.39" y1="82.86" x2="78.68" y2="84.63"/>
	<line class="st2" x1="73.81" y1="84.65" x2="77.2" y2="84.65"/>
	<line class="st3" x1="81.08" y1="87.38" x2="78.5" y2="85.14"/>
	<line class="st3" x1="81.61" y1="81.64" x2="78.51" y2="84.19"/>
	<line class="st3" x1="78.91" y1="84.95" x2="78.65" y2="84.87"/>
	<line class="st3" x1="79.21" y1="89.63" x2="78.13" y2="85.38"/>
	<line class="st3" x1="81.16" y1="84.19" x2="78.67" y2="84.55"/>
	<line class="st3" x1="79.76" y1="87.05" x2="78.39" y2="85.25"/>
	<line class="st4" x1="75.31" y1="97.51" x2="50.7" y2="139.53"/>
	<line class="st5" x1="92.31" y1="148.03" x2="52.28" y2="142.76"/>
	<line class="st5" x1="73.17" y1="91.32" x2="50.44" y2="139.4"/>
	<line class="st5" x1="77.15" y1="96.04" x2="50.74" y2="139.56"/>
	<line class="st2" x1="76.2" y1="79.84" x2="75.16" y2="80.4"/>
	<line class="st2" x1="73.32" y1="83.95" x2="74.25" y2="81.45"/>
	<line class="st2" x1="86.08" y1="94.34" x2="82.46" y2="94.87"/>
	<line class="st2" x1="76.39" y1="96.65" x2="81.02" y2="95.2"/>
	<line class="st3" x1="81.65" y1="88.61" x2="81.72" y2="94.24"/>
	<line class="st3" x1="83.99" y1="92.54" x2="82.23" y2="94.44"/>
	<line class="st5" x1="122.47" y1="111.06" x2="87.49" y2="94.55"/>
	<line class="st3" x1="85.03" y1="92.51" x2="86.28" y2="93.72"/>
	<line class="st3" x1="82.11" y1="96.38" x2="86.14" y2="94.54"/>
	<line class="st2" x1="75.98" y1="94.09" x2="78.69" y2="92.64"/>
	<line class="st5" x1="123.45" y1="83.38" x2="80.07" y2="92.14"/>
	<line class="st2" x1="83.63" y1="97.82" x2="79.8" y2="92.87"/>
	<line class="st5" x1="94.63" y1="145.33" x2="79.55" y2="93"/>
	<line class="st5" x1="122.43" y1="111.14" x2="80.02" y2="92.58"/>
	<line class="st3" x1="83.76" y1="92.04" x2="80.08" y2="92.24"/>
	<line class="st3" x1="72.86" y1="93.86" x2="78.62" y2="92.46"/>
	<line class="st3" x1="80.08" y1="88.37" x2="79.48" y2="91.56"/>
	<line class="st2" x1="76.12" y1="79.37" x2="71.46" y2="78.71"/>
	<line class="st3" x1="69.9" y1="84.52" x2="70.63" y2="79.34"/>
	<line class="st2" x1="67.69" y1="75.17" x2="70.24" y2="78.05"/>
	<line class="st5" x1="123.6" y1="83.88" x2="74.5" y2="102.35"/>
	<line class="st2" x1="71.19" y1="106.55" x2="73.39" y2="103.23"/>
	<line class="st3" x1="75.45" y1="97.58" x2="74.04" y2="101.91"/>
	<line class="st5" x1="94.13" y1="145.52" x2="74.12" y2="103.28"/>
	<line class="st3" x1="72.04" y1="99.42" x2="73.44" y2="101.96"/>
	<line class="st2" x1="72.16" y1="98.21" x2="74.85" y2="95.01"/>
	<line class="st3" x1="73.81" y1="91.31" x2="75.01" y2="93.78"/>
	<line class="st3" x1="78.86" y1="90.87" x2="75.85" y2="93.91"/>
	<line class="st2" x1="82.82" y1="73.31" x2="80.93" y2="77.25"/>
	<line class="st5" x1="36.77" y1="57.32" x2="76.21" y2="79.12"/>
	<line class="st3" x1="81.34" y1="83.58" x2="77.4" y2="79.98"/>
	<line class="st5" x1="123.64" y1="83.99" x2="90.9" y2="97.77"/>
	<line class="st2" x1="88.36" y1="101.98" x2="89.9" y2="98.73"/>
	<line class="st5" x1="95.19" y1="145.23" x2="90.29" y2="98.8"/>
	<line class="st3" x1="85.87" y1="94.77" x2="89.62" y2="97.61"/>
	<line class="st5" x1="96.91" y1="145.52" x2="125.24" y2="85.67"/>
	<line class="st5" x1="125.42" y1="109.28" x2="126.49" y2="85.97"/>
	<line class="st4" x1="86" y1="94.12" x2="123.51" y2="83.61"/>
	<line class="st4" x1="82.63" y1="84.06" x2="123.39" y2="82.83"/>
	<line class="st4" x1="80.95" y1="87.56" x2="123.41" y2="83.08"/>
	<line class="st4" x1="85.43" y1="89.94" x2="123.43" y2="83.29"/>
	<line class="st4" x1="82.15" y1="96.47" x2="123.53" y2="83.69"/>
	<line class="st2" x1="87.53" y1="102.1" x2="84.59" y2="98.95"/>
	<line class="st5" x1="122.33" y1="111.39" x2="84.79" y2="98.65"/>
	<line class="st3" x1="84.45" y1="92.73" x2="84.14" y2="97.67"/>
	<line class="st2" x1="75.78" y1="96.14" x2="76.33" y2="91.62"/>
	<line class="st3" x1="81" y1="88.24" x2="77.06" y2="90.51"/>
	<line class="st3" x1="79.27" y1="85.8" x2="76.79" y2="90.23"/>
	<line class="st3" x1="79.65" y1="88.12" x2="76.99" y2="90.4"/>
	<line class="st2" x1="72.35" y1="98.46" x2="75.01" y2="97.19"/>
	<line class="st4" x1="85.42" y1="95.05" x2="94.92" y2="145.27"/>
	<line class="st4" x1="85.16" y1="92.33" x2="122.5" y2="111"/>
	<line class="st4" x1="83.69" y1="73.15" x2="123.01" y2="110.25"/>
	<line class="st4" x1="82.13" y1="96.94" x2="122.35" y2="111.34"/>
	<line class="st3" x1="73.44" y1="89.9" x2="73.12" y2="85.38"/>
	<line class="st2" x1="80.07" y1="85.75" x2="81.2" y2="87.27"/>
	<line class="st2" x1="79.88" y1="89.8" x2="81.14" y2="88.42"/>
	<line class="st2" x1="81.84" y1="84.83" x2="81.69" y2="87.13"/>
	<line class="st5" x1="76.99" y1="94.91" x2="36.33" y2="57.93"/>
	<line class="st2" x1="77.05" y1="94.84" x2="73.97" y2="91.21"/>
	<line class="st2" x1="78.65" y1="90.38" x2="74.23" y2="90.6"/>
	<line class="st2" x1="72.42" y1="93.34" x2="73.21" y2="91.33"/>
	<line class="st2" x1="80.03" y1="84.53" x2="81.78" y2="81.79"/>
	<line class="st2" x1="81.96" y1="83.35" x2="82.1" y2="81.9"/>
	<line class="st2" x1="80.43" y1="86.93" x2="81.96" y2="81.87"/>
	<line class="st3" x1="83.42" y1="71.96" x2="84.89" y2="68.23"/>
	<line class="st2" x1="79.42" y1="89.61" x2="79.59" y2="85.9"/>
	<line class="st2" x1="81.22" y1="84.4" x2="80.3" y2="84.84"/>
	<line class="st2" x1="80.05" y1="86.91" x2="79.8" y2="85.88"/>
	<line class="st2" x1="79.13" y1="91.04" x2="77.79" y2="94.71"/>
	<line class="st2" x1="80.73" y1="96.45" x2="78.24" y2="95.64"/>
	<line class="st2" x1="80" y1="90.76" x2="84.67" y2="93.9"/>
	<line class="st2" x1="80.73" y1="88.16" x2="83.98" y2="91.46"/>
	<line class="st2" x1="81.62" y1="84.77" x2="79.66" y2="89.66"/>
	<line class="st2" x1="80" y1="88.34" x2="79.6" y2="89.64"/>
	<line class="st2" x1="83.96" y1="90.11" x2="80.13" y2="90.31"/>
	<line class="st2" x1="81.21" y1="95.98" x2="79.62" y2="91.05"/>
	<line class="st2" x1="80.53" y1="86.96" x2="81.57" y2="84.76"/>
	<line class="st2" x1="81.76" y1="96.02" x2="84.38" y2="90.73"/>
	<path class="st6" d="M86.07,94.23c0-0.41,0.34-0.74,0.74-0.74c0.41,0,0.74,0.33,0.74,0.74c0,0.41-0.34,0.74-0.74,0.74
		C86.41,94.98,86.07,94.64,86.07,94.23"/>
	<path class="st6" d="M81.15,84.09c0-0.41,0.33-0.74,0.74-0.74c0.41,0,0.74,0.33,0.74,0.74c0,0.41-0.33,0.74-0.74,0.74
		C81.48,84.83,81.15,84.49,81.15,84.09"/>
	<path class="st6" d="M83.96,90.07c0-0.41,0.34-0.74,0.74-0.74c0.41,0,0.74,0.33,0.74,0.74c0,0.41-0.33,0.74-0.74,0.74
		C84.3,90.81,83.96,90.48,83.96,90.07"/>
	<path class="st6" d="M83.76,91.99c0-0.41,0.33-0.74,0.74-0.74c0.41,0,0.74,0.34,0.74,0.74c0,0.41-0.33,0.74-0.74,0.74
		C84.09,92.74,83.76,92.4,83.76,91.99"/>
	<path class="st6" d="M73.06,102.61c0-0.41,0.33-0.74,0.74-0.74c0.41,0,0.74,0.34,0.74,0.74s-0.33,0.74-0.74,0.74
		C73.39,103.36,73.06,103.02,73.06,102.61"/>
	<path class="st6" d="M74.95,96.87c0-0.41,0.33-0.74,0.74-0.74c0.41,0,0.74,0.33,0.74,0.74c0,0.41-0.33,0.74-0.74,0.74
		C75.28,97.62,74.95,97.28,74.95,96.87"/>
	<path class="st7" d="M92.28,148.46c0-1.79,1.46-3.24,3.24-3.24c1.79,0,3.24,1.46,3.24,3.24s-1.46,3.24-3.24,3.24
		C93.74,151.7,92.28,150.24,92.28,148.46"/>
	<path class="st6" d="M80.69,96.69c0-0.41,0.34-0.74,0.74-0.74c0.41,0,0.74,0.33,0.74,0.74c0,0.41-0.33,0.74-0.74,0.74
		C81.03,97.43,80.69,97.09,80.69,96.69"/>
	<path class="st6" d="M77.2,84.66c0-0.41,0.34-0.74,0.74-0.74s0.74,0.34,0.74,0.74c0,0.41-0.34,0.74-0.74,0.74
		S77.2,85.07,77.2,84.66"/>
	<path class="st6" d="M69.06,85.25c0-0.41,0.33-0.74,0.74-0.74c0.41,0,0.74,0.33,0.74,0.74c0,0.41-0.33,0.74-0.74,0.74
		C69.39,85.99,69.06,85.66,69.06,85.25"/>
	<path class="st7" d="M122.17,112.39c0-1.71,1.4-3.11,3.11-3.11c1.71,0,3.11,1.4,3.11,3.11c0,1.71-1.4,3.11-3.11,3.11
		C123.57,115.5,122.17,114.1,122.17,112.39"/>
	<path class="st6" d="M78.64,90.35c0-0.41,0.34-0.74,0.74-0.74s0.74,0.33,0.74,0.74c0,0.41-0.34,0.74-0.74,0.74
		S78.64,90.76,78.64,90.35"/>
	<path class="st6" d="M79.47,87.64c0-0.41,0.33-0.74,0.74-0.74c0.41,0,0.74,0.33,0.74,0.74c0,0.41-0.33,0.74-0.74,0.74
		C79.81,88.37,79.47,88.04,79.47,87.64"/>
	<path class="st6" d="M73.77,80.75c0-0.41,0.34-0.74,0.74-0.74c0.41,0,0.74,0.34,0.74,0.74c0,0.41-0.34,0.74-0.74,0.74
		C74.1,81.5,73.77,81.16,73.77,80.75"/>
	<path class="st6" d="M78.6,92.28c0-0.41,0.33-0.74,0.74-0.74c0.41,0,0.74,0.33,0.74,0.74c0,0.41-0.33,0.74-0.74,0.74
		C78.93,93.02,78.6,92.69,78.6,92.28"/>
	<path class="st6" d="M79.87,77.92c0-0.41,0.33-0.74,0.74-0.74c0.41,0,0.74,0.33,0.74,0.74c0,0.41-0.33,0.74-0.74,0.74
		C80.2,78.65,79.87,78.32,79.87,77.92"/>
	<path class="st6" d="M76.11,79.48c0-0.41,0.33-0.74,0.74-0.74c0.41,0,0.74,0.34,0.74,0.74c0,0.41-0.33,0.74-0.74,0.74
		C76.45,80.22,76.11,79.89,76.11,79.48"/>
	<path class="st7" d="M123.39,82.73c0-1.78,1.46-3.24,3.24-3.24c1.79,0,3.24,1.46,3.24,3.24c0,1.79-1.46,3.24-3.24,3.24
		C124.85,85.98,123.39,84.52,123.39,82.73"/>
	<path class="st6" d="M72.33,84.65c0-0.41,0.33-0.74,0.74-0.74c0.41,0,0.74,0.33,0.74,0.74c0,0.41-0.33,0.74-0.74,0.74
		C72.66,85.38,72.33,85.05,72.33,84.65"/>
	<path class="st6" d="M80.9,87.87c0-0.41,0.33-0.74,0.74-0.74c0.41,0,0.74,0.34,0.74,0.74s-0.33,0.74-0.74,0.74
		C81.24,88.61,80.9,88.27,80.9,87.87"/>
	<path class="st6" d="M81.44,81.16c0-0.41,0.33-0.74,0.74-0.74c0.41,0,0.74,0.33,0.74,0.74c0,0.41-0.34,0.74-0.74,0.74
		C81.77,81.9,81.44,81.57,81.44,81.16"/>
	<path class="st6" d="M78.89,85.15c0-0.41,0.33-0.74,0.74-0.74c0.41,0,0.74,0.33,0.74,0.74c0,0.41-0.33,0.74-0.74,0.74
		C79.22,85.9,78.89,85.56,78.89,85.15"/>
	<path class="st6" d="M72.74,90.64c0-0.41,0.33-0.74,0.74-0.74c0.41,0,0.74,0.33,0.74,0.74c0,0.41-0.33,0.74-0.74,0.74
		C73.08,91.38,72.74,91.05,72.74,90.64"/>
	<path class="st6" d="M76.8,95.4c0-0.41,0.33-0.74,0.74-0.74c0.41,0,0.74,0.33,0.74,0.74c0,0.41-0.33,0.74-0.74,0.74
		C77.13,96.14,76.8,95.81,76.8,95.4"/>
	<path class="st6" d="M74.59,94.44c0-0.41,0.33-0.74,0.74-0.74c0.41,0,0.74,0.34,0.74,0.74c0,0.41-0.33,0.74-0.74,0.74
		C74.92,95.18,74.59,94.85,74.59,94.44"/>
	<path class="st6" d="M83.35,98.41c0-0.41,0.33-0.74,0.74-0.74c0.41,0,0.74,0.33,0.74,0.74c0,0.41-0.33,0.74-0.74,0.74
		C83.68,99.15,83.35,98.82,83.35,98.41"/>
	<path class="st6" d="M71.4,94.03c0-0.41,0.33-0.74,0.74-0.74c0.41,0,0.74,0.33,0.74,0.74c0,0.41-0.33,0.74-0.74,0.74
		C71.73,94.77,71.4,94.44,71.4,94.03"/>
	<path class="st6" d="M66.46,74.62c0-0.41,0.33-0.74,0.74-0.74c0.41,0,0.74,0.34,0.74,0.74s-0.33,0.74-0.74,0.74
		C66.79,75.36,66.46,75.03,66.46,74.62"/>
	<path class="st6" d="M70.03,107.17c0-0.41,0.34-0.74,0.74-0.74c0.41,0,0.74,0.34,0.74,0.74c0,0.41-0.34,0.74-0.74,0.74
		C70.37,107.91,70.03,107.57,70.03,107.17"/>
	<path class="st6" d="M70.94,98.77c0-0.41,0.34-0.74,0.74-0.74s0.74,0.33,0.74,0.74c0,0.41-0.34,0.74-0.74,0.74
		S70.94,99.18,70.94,98.77"/>
	<path class="st6" d="M82.41,72.64c0-0.41,0.33-0.74,0.74-0.74c0.41,0,0.74,0.33,0.74,0.74c0,0.41-0.33,0.74-0.74,0.74
		C82.74,73.39,82.41,73.05,82.41,72.64"/>
	<path class="st7" d="M30.68,55.75c0-1.79,1.46-3.24,3.24-3.24c1.78,0,3.24,1.46,3.24,3.24c0,1.78-1.46,3.24-3.24,3.24
		C32.14,58.99,30.68,57.53,30.68,55.75"/>
	<path class="st6" d="M87.3,102.65c0-0.41,0.34-0.74,0.74-0.74c0.41,0,0.74,0.33,0.74,0.74c0,0.41-0.34,0.74-0.74,0.74
		C87.63,103.39,87.3,103.05,87.3,102.65"/>
	<path class="st6" d="M84.54,94.32c0-0.41,0.33-0.74,0.74-0.74c0.41,0,0.74,0.34,0.74,0.74s-0.33,0.74-0.74,0.74
		C84.87,95.06,84.54,94.73,84.54,94.32"/>
	<path class="st6" d="M86.36,85.85c0-0.41,0.33-0.74,0.74-0.74c0.41,0,0.74,0.33,0.74,0.74c0,0.41-0.33,0.74-0.74,0.74
		C86.69,86.59,86.36,86.26,86.36,85.85"/>
	<path class="st6" d="M89.85,90.72c0-0.41,0.34-0.74,0.74-0.74c0.41,0,0.74,0.33,0.74,0.74c0,0.41-0.34,0.74-0.74,0.74
		C90.18,91.47,89.85,91.14,89.85,90.72"/>
	<path class="st6" d="M77.44,102.03c0-0.41,0.34-0.74,0.74-0.74c0.41,0,0.74,0.33,0.74,0.74c0,0.41-0.34,0.74-0.74,0.74
		C77.77,102.77,77.44,102.44,77.44,102.03"/>
	<path class="st6" d="M74.36,88.62c0-0.41,0.33-0.74,0.74-0.74c0.41,0,0.74,0.34,0.74,0.74s-0.33,0.74-0.74,0.74
		C74.7,89.37,74.36,89.03,74.36,88.62"/>
	<path class="st7" d="M45.81,142.33c0-1.79,1.46-3.24,3.24-3.24c1.79,0,3.24,1.46,3.24,3.24s-1.46,3.24-3.24,3.24
		C47.27,145.58,45.81,144.12,45.81,142.33"/>
	<path class="st6" d="M80.99,94.98c0-0.41,0.33-0.74,0.74-0.74c0.41,0,0.74,0.33,0.74,0.74c0,0.41-0.33,0.74-0.74,0.74
		C81.32,95.72,80.99,95.39,80.99,94.98"/>
	<path class="st6" d="M69.99,78.61c0-0.41,0.33-0.74,0.74-0.74c0.41,0,0.74,0.34,0.74,0.74c0,0.41-0.33,0.74-0.74,0.74
		C70.32,79.35,69.99,79.01,69.99,78.61"/>
	<path class="st6" d="M89.47,98.06c0-0.41,0.33-0.74,0.74-0.74c0.41,0,0.74,0.34,0.74,0.74s-0.33,0.74-0.74,0.74
		C89.8,98.8,89.47,98.47,89.47,98.06"/>
	<path class="st6" d="M75.68,90.88c0-0.41,0.33-0.74,0.74-0.74c0.41,0,0.74,0.33,0.74,0.74c0,0.41-0.33,0.74-0.74,0.74
		C76.02,91.62,75.68,91.29,75.68,90.88"/>
	<path class="st6" d="M84.42,67.54c0-0.41,0.33-0.74,0.74-0.74c0.41,0,0.74,0.33,0.74,0.74c0,0.41-0.33,0.74-0.74,0.74
		C84.75,68.28,84.42,67.95,84.42,67.54"/>
	<text transform="matrix(1 0 0 1 84.126 94.4492)" class="st8 st9 st10">g__Collinsella</text>
	<text transform="matrix(1 0 0 1 80.0273 84.2988)"><tspan x="0" y="0" class="st8 st9 st10">g__A</tspan><tspan x="2.05" y="0" class="st8 st9 st10">f</tspan><tspan x="2.34" y="0" class="st8 st9 st10">ipia</tspan></text>
	<text transform="matrix(1 0 0 1 81.7031 90.2813)" class="st8 st9 st10">g__Caloramator</text>
	<text transform="matrix(1 0 0 1 80.7568 92.2109)" class="st8 st9 st10">g__Phyllobacterium</text>
	<text transform="matrix(1 0 0 1 71.5205 102.8271)" class="st8 st9 st10">g__Dialister</text>
	<text transform="matrix(1 0 0 1 70.7861 97.0898)" class="st8 st9 st10">g__Phascolarctobacterium</text>
	<text transform="matrix(1 0 0 1 92.9795 148.6675)"><tspan x="0" y="0" class="st8 st9 st10">g__Pr</tspan><tspan x="2.21" y="0" class="st8 st9 st10">ev</tspan><tspan x="3.03" y="0" class="st8 st9 st10">otella</tspan></text>
	<text transform="matrix(1 0 0 1 78.998 96.9004)" class="st8 st9 st10">g__Ralstonia</text>
	<text transform="matrix(1 0 0 1 75.0698 84.8711)" class="st8 st9 st10">g__Bacteroides</text>
	<text transform="matrix(1 0 0 1 66.7476 85.4668)" class="st8 st9 st10">g__Eubacterium</text>
	<text transform="matrix(1 0 0 1 122.7246 112.6035)"><tspan x="0" y="0" class="st8 st9 st10">g__Rose</tspan><tspan x="3.23" y="0" class="st8 st9 st10">b</tspan><tspan x="3.67" y="0" class="st8 st9 st10">uria</tspan></text>
	<text transform="matrix(1 0 0 1 75.2593 90.5625)" class="st8 st9 st10">g__Propionibacterium</text>
	<text transform="matrix(1 0 0 1 76.4961 87.8486)" class="st8 st9 st10">g__Bradyrhizobium</text>
	<text transform="matrix(1 0 0 1 72.4854 80.9707)" class="st8 st9 st10">g__Blautia</text>
	<text transform="matrix(1 0 0 1 76.2422 92.4922)" class="st8 st9 st10">g__Coprococcus</text>
	<text transform="matrix(1 0 0 1 77.5625 78.1274)" class="st8 st9 st10">g__Enterobacter</text>
	<text transform="matrix(1 0 0 1 73.6758 79.6875)" class="st8 st9 st10">g__Enterococcus</text>
	<text transform="matrix(1 0 0 1 123.6611 82.9512)" class="st8 st9 st10">g__Lachnospira</text>
	<text transform="matrix(1 0 0 1 69.6328 84.8574)" class="st8 st9 st10">g__Ruminococcus</text>
	<text transform="matrix(1 0 0 1 78.3657 88.0791)" class="st8 st9 st10">g__Streptococcus</text>
	<text transform="matrix(1 0 0 1 79.9717 81.377)" class="st8 st9 st10">g__Bacillus</text>
	<text transform="matrix(1 0 0 1 75.5269 85.3701)" class="st8 st9 st10">g__Methylobacterium</text>
	<text transform="matrix(1 0 0 1 71.0356 90.8584)"><tspan x="0" y="0" class="st8 st9 st10">g__</tspan><tspan x="1.38" y="0" class="st8 st9 st10">W</tspan><tspan x="2.18" y="0" class="st8 st9 st10">eissella</tspan></text>
	<text transform="matrix(1 0 0 1 74.4604 95.6172)" class="st8 st9 st10">g__Micrococcus</text>
	<text transform="matrix(1 0 0 1 73.5098 94.6431)" class="st8 st9 st10">g__Dorea</text>
	<text transform="matrix(1 0 0 1 81.1631 98.627)" class="st8 st9 st10">g__Oscillospira</text>
	<text transform="matrix(1 0 0 1 70.3203 94.2373)" class="st8 st9 st10">g__Bosea</text>
	<text transform="matrix(1 0 0 1 64.3887 74.8364)"><tspan x="0" y="0" class="st8 st9 st10">g__Mo</tspan><tspan x="2.67" y="0" class="st8 st9 st10">r</tspan><tspan x="2.96" y="0" class="st8 st9 st10">ganella</tspan></text>
	<text transform="matrix(1 0 0 1 67.5967 107.3828)" class="st8 st9 st10">g__Lactobacillus</text>
	<text transform="matrix(1 0 0 1 69.2217 98.9868)" class="st8 st9 st10">g__Sutterella</text>
	<text transform="matrix(1 0 0 1 80.3779 72.8604)" class="st8 st9 st10">g__Salmonella</text>
	<text transform="matrix(1 0 0 1 31.2329 55.9619)"><tspan x="0" y="0" class="st8 st9 st10">g__</tspan><tspan x="1.38" y="0" class="st8 st9 st10">V</tspan><tspan x="1.95" y="0" class="st8 st9 st10">eillonella</tspan></text>
	<text transform="matrix(1 0 0 1 84.4307 102.8594)"><tspan x="0" y="0" class="st8 st9 st10">g__</tspan><tspan x="1.38" y="0" class="st8 st9 st10">P</tspan><tspan x="1.88" y="0" class="st8 st9 st10">arabacteroides</tspan></text>
	<text transform="matrix(1 0 0 1 82.1367 94.5322)"><tspan x="0" y="0" class="st8 st9 st10">g__</tspan><tspan x="1.38" y="0" class="st8 st9 st10">P</tspan><tspan x="1.88" y="0" class="st8 st9 st10">aenibacillus</tspan></text>
	<text transform="matrix(1 0 0 1 83.1016 86.0625)" class="st8 st9 st10">g__Acidaminococcus</text>
	<text transform="matrix(1 0 0 1 87.3066 90.9409)" class="st8 st9 st10">g__Acinetobacter</text>
	<text transform="matrix(1 0 0 1 75.0332 102.2451)"><tspan x="0" y="0" class="st8 st9 st10">g__Ak</tspan><tspan x="2.51" y="0" class="st8 st9 st10">k</tspan><tspan x="2.97" y="0" class="st8 st9 st10">ermansia</tspan></text>
	<text transform="matrix(1 0 0 1 72 88.8364)" class="st8 st9 st10">g__Anaerostipes</text>
	<text transform="matrix(1 0 0 1 45.3525 142.5518)"><tspan x="0" y="0" class="st8 st9 st10">g__Bi</tspan><tspan x="2.26" y="0" class="st8 st9 st10">f</tspan><tspan x="2.55" y="0" class="st8 st9 st10">idobacterium</tspan></text>
	<text transform="matrix(1 0 0 1 78.8271 95.1924)" class="st8 st9 st10">g__Clostridium</text>
	<text transform="matrix(1 0 0 1 66.835 78.8198)" class="st8 st9 st10">g__Corynebacterium</text>
	<text transform="matrix(1 0 0 1 86.3467 98.2759)"><tspan x="0" y="0" class="st8 st9 st10">g__</tspan><tspan x="1.38" y="0" class="st8 st9 st10">F</tspan><tspan x="1.88" y="0" class="st8 st9 st10">aecalibacterium</tspan></text>
	<text transform="matrix(1 0 0 1 73.0947 91.0933)"><tspan x="0" y="0" class="st8 st9 st10">g__</tspan><tspan x="1.38" y="0" class="st8 st9 st10">P</tspan><tspan x="1.88" y="0" class="st8 st9 st10">arapr</tspan><tspan x="3.78" y="0" class="st8 st9 st10">ev</tspan><tspan x="4.61" y="0" class="st8 st9 st10">otella</tspan></text>
	<text transform="matrix(1 0 0 1 81.6523 67.7559)"><tspan x="0" y="0" class="st8 st9 st10">g__Cam</tspan><tspan x="3.13" y="0" class="st8 st9 st10">p</tspan><tspan x="3.58" y="0" class="st8 st9 st10">ylobacter</tspan></text>
	<text transform="matrix(1 0 0 1 89.541 34.9092)"><tspan x="0" y="0" class="st11 st12">case net</tspan><tspan x="25.86" y="0" class="st11 st12">w</tspan><tspan x="30.77" y="0" class="st11 st12">ork</tspan></text>
	<line class="st13" x1="56.51" y1="160.9" x2="69.92" y2="160.9"/>
	<line class="st14" x1="56.51" y1="153.64" x2="69.92" y2="153.64"/>
	<text transform="matrix(1 0 0 1 76.6255 162.8936)"><tspan x="0" y="0" class="st15 st16">positi</tspan><tspan x="12.93" y="0" class="st15 st16">v</tspan><tspan x="15.56" y="0" class="st15 st16">e correlation</tspan></text>
	<text transform="matrix(1 0 0 1 76.6255 155.6279)"><tspan x="0" y="0" class="st15 st16">negati</tspan><tspan x="15.09" y="0" class="st15 st16">v</tspan><tspan x="17.72" y="0" class="st15 st16">e correlation</tspan></text>
	<line class="st3" x1="203.71" y1="87.79" x2="205.1" y2="87.46"/>
	<line class="st5" x1="268.61" y1="70.95" x2="268.11" y2="65.88"/>
	<line class="st2" x1="229.01" y1="56.32" x2="229.36" y2="55.78"/>
	<line class="st2" x1="228.1" y1="54.42" x2="229.13" y2="54.95"/>
	<line class="st5" x1="220.26" y1="71.65" x2="229.38" y2="55.8"/>
	<line class="st2" x1="200.7" y1="87.61" x2="201.52" y2="86.91"/>
	<line class="st2" x1="202.71" y1="87.43" x2="202.39" y2="87.01"/>
	<line class="st2" x1="202.93" y1="85.15" x2="202.37" y2="85.97"/>
	<line class="st3" x1="200.64" y1="86.28" x2="201.37" y2="86.39"/>
	<line class="st5" x1="195.97" y1="117.55" x2="202.42" y2="131.96"/>
	<line class="st3" x1="226.98" y1="56.02" x2="228.09" y2="56.57"/>
	<line class="st3" x1="198.58" y1="97.27" x2="196.97" y2="97.61"/>
	<line class="st4" x1="195.07" y1="112.2" x2="196.29" y2="98.38"/>
	<line class="st2" x1="194.62" y1="96.77" x2="195.78" y2="97.42"/>
	<line class="st2" x1="199.65" y1="96.68" x2="200.52" y2="95.79"/>
	<line class="st2" x1="201.26" y1="93.58" x2="201.07" y2="94.7"/>
	<line class="st3" x1="226.91" y1="53" x2="227.22" y2="53.57"/>
	<line class="st3" x1="226.78" y1="55.21" x2="227.17" y2="54.65"/>
	<line class="st2" x1="203.91" y1="84.46" x2="205.33" y2="84.09"/>
	<line class="st2" x1="193.9" y1="93.15" x2="193.51" y2="93.92"/>
	<line class="st2" x1="193.8" y1="95.86" x2="193.47" y2="95.08"/>
	<line class="st2" x1="202.45" y1="87.96" x2="200.85" y2="88.01"/>
	<line class="st3" x1="198.24" y1="88.96" x2="199.63" y2="88.3"/>
	<line class="st3" x1="200.07" y1="86.82" x2="200.14" y2="87.39"/>
	<line class="st3" x1="191.23" y1="83.42" x2="191.35" y2="84.06"/>
	<line class="st2" x1="189.22" y1="84.55" x2="190.84" y2="84.65"/>
	<line class="st2" x1="193.24" y1="85.64" x2="192.04" y2="85"/>
	<line class="st4" x1="194.09" y1="97.09" x2="194.71" y2="112.19"/>
	<line class="st2" x1="199.54" y1="92.16" x2="199.44" y2="91.79"/>
	<line class="st3" x1="198.07" y1="89.73" x2="198.85" y2="90.68"/>
	<line class="st3" x1="197.38" y1="91.82" x2="198.66" y2="91.38"/>
	<line class="st2" x1="200.88" y1="92.54" x2="199.75" y2="91.59"/>
	<line class="st2" x1="200.27" y1="94.1" x2="199.96" y2="93.37"/>
	<line class="st3" x1="205.06" y1="88.61" x2="203.7" y2="88.15"/>
	<line class="st5" x1="216.7" y1="75.49" x2="203.82" y2="84.27"/>
	<line class="st3" x1="203.13" y1="83.34" x2="203.21" y2="83.99"/>
	<line class="st5" x1="194.7" y1="92.19" x2="216.77" y2="75.59"/>
	<line class="st2" x1="196.06" y1="91.2" x2="194.7" y2="92.2"/>
	<line class="st3" x1="194.21" y1="91.71" x2="194.21" y2="91.94"/>
	<line class="st3" x1="197.3" y1="89.76" x2="196.93" y2="90.29"/>
	<line class="st3" x1="196.67" y1="91.4" x2="196.68" y2="91.44"/>
	<line class="st2" x1="197.28" y1="88.73" x2="196.6" y2="87.82"/>
	<line class="st2" x1="194.36" y1="86.26" x2="195.65" y2="86.99"/>
	<line class="st5" x1="193.78" y1="87.77" x2="223.07" y2="99.19"/>
	<line class="st2" x1="195.06" y1="89.62" x2="197.03" y2="89.33"/>
	<line class="st2" x1="196.02" y1="89.03" x2="197.03" y2="89.15"/>
	<line class="st2" x1="193.41" y1="86.93" x2="193.57" y2="86.54"/>
	<line class="st2" x1="202" y1="93.05" x2="203.46" y2="93.28"/>
	<line class="st2" x1="192.64" y1="90.89" x2="193.59" y2="91"/>
	<line class="st2" x1="194.33" y1="90.35" x2="194.32" y2="90.44"/>
	<line class="st2" x1="196.18" y1="91.81" x2="194.83" y2="91.3"/>
	<line class="st2" x1="195.07" y1="89.51" x2="194.53" y2="90.51"/>
	<line class="st3" x1="194.84" y1="88.6" x2="193.72" y2="87.88"/>
	<line class="st2" x1="193.85" y1="89.98" x2="192.59" y2="90.55"/>
	<line class="st2" x1="194.88" y1="89.35" x2="194.93" y2="89.31"/>
	<line class="st2" x1="192.09" y1="89.34" x2="193.79" y2="89.61"/>
	<path class="st6" d="M202.45,87.95c0-0.35,0.29-0.64,0.64-0.64c0.35,0,0.64,0.29,0.64,0.64c0,0.35-0.29,0.64-0.64,0.64
		C202.74,88.59,202.45,88.3,202.45,87.95"/>
	<path class="st6" d="M268.03,71.59c0-0.36,0.29-0.64,0.64-0.64c0.36,0,0.64,0.29,0.64,0.64c0,0.35-0.29,0.64-0.64,0.64
		C268.32,72.23,268.03,71.94,268.03,71.59"/>
	<path class="st6" d="M228.02,56.86c0-0.35,0.29-0.64,0.64-0.64c0.36,0,0.64,0.29,0.64,0.64s-0.29,0.64-0.64,0.64
		C228.31,57.5,228.02,57.21,228.02,56.86"/>
	<path class="st6" d="M226.9,54.13c0-0.36,0.29-0.64,0.64-0.64c0.35,0,0.64,0.29,0.64,0.64c0,0.35-0.29,0.64-0.64,0.64
		C227.19,54.76,226.9,54.48,226.9,54.13"/>
	<path class="st7" d="M216.23,73.98c0-1.48,1.21-2.69,2.69-2.69c1.48,0,2.69,1.21,2.69,2.69c0,1.48-1.21,2.69-2.69,2.69
		C217.44,76.67,216.23,75.46,216.23,73.98"/>
	<path class="st6" d="M199.56,88.02c0-0.35,0.29-0.64,0.64-0.64c0.35,0,0.64,0.29,0.64,0.64c0,0.36-0.29,0.64-0.64,0.64
		C199.86,88.67,199.56,88.38,199.56,88.02"/>
	<path class="st6" d="M202.65,84.63c0-0.36,0.29-0.64,0.64-0.64c0.36,0,0.64,0.29,0.64,0.64c0,0.35-0.29,0.64-0.64,0.64
		C202.94,85.27,202.65,84.98,202.65,84.63"/>
	<path class="st6" d="M199.36,86.18c0-0.35,0.29-0.64,0.64-0.64c0.35,0,0.64,0.29,0.64,0.64c0,0.35-0.29,0.64-0.64,0.64
		C199.65,86.82,199.36,86.53,199.36,86.18"/>
	<path class="st7" d="M192.02,114.99c0-1.54,1.26-2.81,2.81-2.81s2.8,1.26,2.8,2.81s-1.26,2.8-2.8,2.8S192.02,116.54,192.02,114.99"
		/>
	<path class="st6" d="M225.77,55.73c0-0.35,0.29-0.64,0.64-0.64c0.36,0,0.64,0.29,0.64,0.64c0,0.35-0.29,0.64-0.64,0.64
		C226.06,56.37,225.77,56.08,225.77,55.73"/>
	<path class="st6" d="M198.56,97.14c0-0.36,0.29-0.64,0.64-0.64c0.36,0,0.64,0.29,0.64,0.64c0,0.35-0.29,0.64-0.64,0.64
		C198.85,97.78,198.56,97.49,198.56,97.14"/>
	<path class="st6" d="M193.42,96.45c0-0.35,0.29-0.64,0.64-0.64s0.64,0.29,0.64,0.64c0,0.36-0.29,0.64-0.64,0.64
		S193.42,96.8,193.42,96.45"/>
	<path class="st6" d="M200.73,92.95c0-0.36,0.29-0.64,0.64-0.64s0.64,0.29,0.64,0.64c0,0.35-0.29,0.64-0.64,0.64
		S200.73,93.3,200.73,92.95"/>
	<path class="st6" d="M225.95,52.44c0-0.35,0.29-0.64,0.64-0.64s0.64,0.29,0.64,0.64c0,0.36-0.29,0.64-0.64,0.64
		S225.95,52.8,225.95,52.44"/>
	<path class="st6" d="M193.55,92.58c0-0.35,0.29-0.64,0.64-0.64c0.35,0,0.64,0.29,0.64,0.64c0,0.36-0.29,0.64-0.64,0.64
		C193.84,93.22,193.55,92.93,193.55,92.58"/>
	<path class="st6" d="M197.02,89.23c0-0.35,0.29-0.64,0.64-0.64c0.35,0,0.64,0.29,0.64,0.64c0,0.36-0.29,0.64-0.64,0.64
		C197.31,89.88,197.02,89.59,197.02,89.23"/>
	<path class="st6" d="M190.46,82.79c0-0.36,0.29-0.64,0.64-0.64c0.36,0,0.64,0.29,0.64,0.64c0,0.35-0.29,0.64-0.64,0.64
		C190.75,83.43,190.46,83.14,190.46,82.79"/>
	<path class="st6" d="M187.93,84.51c0-0.35,0.29-0.64,0.64-0.64c0.36,0,0.64,0.29,0.64,0.64s-0.29,0.64-0.64,0.64
		C188.22,85.15,187.93,84.86,187.93,84.51"/>
	<path class="st6" d="M193.16,85.95c0-0.36,0.29-0.64,0.64-0.64s0.64,0.29,0.64,0.64c0,0.35-0.29,0.64-0.64,0.64
		S193.16,86.3,193.16,85.95"/>
	<path class="st6" d="M199.08,92.78c0-0.35,0.29-0.64,0.64-0.64c0.35,0,0.64,0.29,0.64,0.64c0,0.36-0.29,0.64-0.64,0.64
		C199.36,93.42,199.08,93.13,199.08,92.78"/>
	<path class="st6" d="M196.14,92.04c0-0.36,0.29-0.64,0.64-0.64c0.36,0,0.64,0.29,0.64,0.64c0,0.35-0.29,0.64-0.64,0.64
		C196.43,92.68,196.14,92.39,196.14,92.04"/>
	<path class="st6" d="M199.87,94.69c0-0.35,0.29-0.64,0.64-0.64c0.35,0,0.64,0.29,0.64,0.64c0,0.35-0.29,0.64-0.64,0.64
		C200.16,95.34,199.87,95.04,199.87,94.69"/>
	<path class="st6" d="M205.03,88.81c0-0.36,0.29-0.64,0.64-0.64c0.35,0,0.64,0.29,0.64,0.64c0,0.35-0.29,0.64-0.64,0.64
		C205.31,89.46,205.03,89.16,205.03,88.81"/>
	<path class="st6" d="M202.4,82.71c0-0.35,0.29-0.64,0.64-0.64c0.35,0,0.64,0.29,0.64,0.64s-0.29,0.64-0.64,0.64
		C202.69,83.35,202.4,83.06,202.4,82.71"/>
	<path class="st6" d="M195.93,90.82c0-0.36,0.29-0.64,0.64-0.64c0.35,0,0.64,0.29,0.64,0.64c0,0.35-0.29,0.64-0.64,0.64
		C196.22,91.45,195.93,91.17,195.93,90.82"/>
	<path class="st6" d="M193.59,91.07c0-0.35,0.29-0.64,0.64-0.64c0.36,0,0.64,0.29,0.64,0.64s-0.29,0.64-0.64,0.64
		C193.88,91.71,193.59,91.42,193.59,91.07"/>
	<path class="st6" d="M192.54,87.53c0-0.35,0.29-0.64,0.64-0.64c0.35,0,0.64,0.29,0.64,0.64c0,0.36-0.29,0.64-0.64,0.64
		C192.83,88.17,192.54,87.89,192.54,87.53"/>
	<path class="st6" d="M193.79,89.71c0-0.35,0.29-0.64,0.64-0.64c0.35,0,0.64,0.29,0.64,0.64c0,0.36-0.29,0.64-0.64,0.64
		C194.08,90.35,193.79,90.06,193.79,89.71"/>
	<path class="st6" d="M194.74,88.95c0-0.36,0.29-0.64,0.64-0.64s0.64,0.29,0.64,0.64c0,0.35-0.29,0.64-0.64,0.64
		S194.74,89.3,194.74,88.95"/>
	<path class="st6" d="M191.36,90.82c0-0.36,0.29-0.64,0.64-0.64c0.35,0,0.64,0.29,0.64,0.64c0,0.35-0.29,0.64-0.64,0.64
		C191.65,91.46,191.36,91.17,191.36,90.82"/>
	<path class="st6" d="M190.81,89.24c0-0.36,0.29-0.64,0.64-0.64c0.36,0,0.64,0.29,0.64,0.64c0,0.35-0.29,0.64-0.64,0.64
		C191.1,89.88,190.81,89.59,190.81,89.24"/>
	<path class="st6" d="M205.09,87.3c0-0.36,0.29-0.64,0.64-0.64c0.35,0,0.64,0.29,0.64,0.64c0,0.35-0.29,0.64-0.64,0.64
		C205.37,87.94,205.09,87.65,205.09,87.3"/>
	<path class="st7" d="M265.02,63.09c0-1.54,1.26-2.81,2.81-2.81c1.54,0,2.8,1.26,2.8,2.81s-1.26,2.8-2.8,2.8
		C266.29,65.89,265.02,64.63,265.02,63.09"/>
	<path class="st6" d="M229.06,55.24c0-0.36,0.29-0.64,0.64-0.64c0.36,0,0.64,0.29,0.64,0.64c0,0.35-0.29,0.64-0.64,0.64
		C229.35,55.88,229.06,55.59,229.06,55.24"/>
	<path class="st6" d="M201.36,86.49c0-0.35,0.29-0.64,0.64-0.64c0.36,0,0.64,0.29,0.64,0.64c0,0.36-0.29,0.64-0.64,0.64
		C201.66,87.13,201.36,86.85,201.36,86.49"/>
	<path class="st6" d="M202.04,132.54c0-0.36,0.29-0.64,0.64-0.64c0.35,0,0.64,0.29,0.64,0.64c0,0.35-0.29,0.64-0.64,0.64
		C202.33,133.18,202.04,132.9,202.04,132.54"/>
	<path class="st6" d="M195.7,97.74c0-0.36,0.29-0.64,0.64-0.64c0.35,0,0.64,0.29,0.64,0.64c0,0.35-0.29,0.64-0.64,0.64
		C195.99,98.38,195.7,98.09,195.7,97.74"/>
	<path class="st6" d="M200.33,95.33c0-0.35,0.29-0.64,0.64-0.64c0.35,0,0.64,0.29,0.64,0.64s-0.29,0.64-0.64,0.64
		C200.61,95.97,200.33,95.68,200.33,95.33"/>
	<path class="st6" d="M205.31,83.93c0-0.35,0.29-0.64,0.64-0.64s0.64,0.29,0.64,0.64c0,0.35-0.29,0.64-0.64,0.64
		S205.31,84.28,205.31,83.93"/>
	<path class="st6" d="M192.58,94.5c0-0.36,0.29-0.64,0.64-0.64c0.35,0,0.64,0.29,0.64,0.64c0,0.35-0.29,0.64-0.64,0.64
		C192.86,95.13,192.58,94.85,192.58,94.5"/>
	<path class="st6" d="M190.84,84.69c0-0.35,0.29-0.64,0.64-0.64s0.64,0.29,0.64,0.64c0,0.36-0.29,0.64-0.64,0.64
		S190.84,85.05,190.84,84.69"/>
	<path class="st6" d="M198.62,91.17c0-0.35,0.29-0.64,0.64-0.64c0.36,0,0.64,0.29,0.64,0.64c0,0.35-0.29,0.64-0.64,0.64
		C198.91,91.81,198.62,91.52,198.62,91.17"/>
	<path class="st6" d="M195.57,87.31c0-0.36,0.29-0.64,0.64-0.64s0.64,0.29,0.64,0.64c0,0.35-0.29,0.64-0.64,0.64
		S195.57,87.66,195.57,87.31"/>
	<path class="st7" d="M222.88,100.21c0-1.54,1.26-2.81,2.8-2.81s2.8,1.26,2.8,2.81c0,1.54-1.26,2.8-2.8,2.8
		S222.88,101.75,222.88,100.21"/>
	<path class="st6" d="M203.46,93.38c0-0.35,0.29-0.64,0.64-0.64c0.35,0,0.64,0.29,0.64,0.64c0,0.35-0.29,0.64-0.64,0.64
		C203.74,94.02,203.46,93.73,203.46,93.38"/>
	<text transform="matrix(1 0 0 1 200.1699 88.1621)" class="st8 st9 st10">g__Oscillospira</text>
	<text transform="matrix(1 0 0 1 266.209 71.8037)" class="st8 st9 st10">g__Sutterella</text>
	<text transform="matrix(1 0 0 1 225.5571 57.0698)" class="st8 st9 st10">g__Coprococcus</text>
	<text transform="matrix(1 0 0 1 225.2568 54.3374)" class="st8 st9 st10">g__Dialister</text>
	<text transform="matrix(1 0 0 1 216.3667 74.1943)"><tspan x="0" y="0" class="st8 st9 st10">g__Rose</tspan><tspan x="3.23" y="0" class="st8 st9 st10">b</tspan><tspan x="3.67" y="0" class="st8 st9 st10">uria</tspan></text>
	<text transform="matrix(1 0 0 1 196.3428 88.2412)"><tspan x="0" y="0" class="st8 st9 st10">g__</tspan><tspan x="1.38" y="0" class="st8 st9 st10">F</tspan><tspan x="1.88" y="0" class="st8 st9 st10">aecalibacterium</tspan></text>
	<text transform="matrix(1 0 0 1 199.6846 84.8389)"><tspan x="0" y="0" class="st8 st9 st10">g__</tspan><tspan x="1.38" y="0" class="st8 st9 st10">P</tspan><tspan x="1.88" y="0" class="st8 st9 st10">arabacteroides</tspan></text>
	<text transform="matrix(1 0 0 1 196.9248 86.3994)" class="st8 st9 st10">g__Micrococcus</text>
	<text transform="matrix(1 0 0 1 191.8472 115.207)" class="st8 st9 st10">g__Lachnospira</text>
	<text transform="matrix(1 0 0 1 223.1797 55.9434)" class="st8 st9 st10">g__Pseudomonas</text>
	<text transform="matrix(1 0 0 1 196.1494 97.3525)" class="st8 st9 st10">g__Eubacterium</text>
	<text transform="matrix(1 0 0 1 191.2886 96.665)" class="st8 st9 st10">g__Salmonella</text>
	<text transform="matrix(1 0 0 1 197.626 93.166)" class="st8 st9 st10">g__Catenibacterium</text>
	<text transform="matrix(1 0 0 1 223.415 52.6616)" class="st8 st9 st10">g__Lactobacillus</text>
	<text transform="matrix(1 0 0 1 190.7529 92.792)" class="st8 st9 st10">g__Ruminococcus</text>
	<text transform="matrix(1 0 0 1 195.457 89.4502)" class="st8 st9 st10">g__Bacillus</text>
	<text transform="matrix(1 0 0 1 187.9512 83.002)" class="st8 st9 st10">g__Haemophilus</text>
	<text transform="matrix(1 0 0 1 184.3188 84.7144)" class="st8 st9 st10">g__Peptostreptococcus</text>
	<text transform="matrix(1 0 0 1 190.2959 86.1592)"><tspan x="0" y="0" class="st8 st9 st10">g__Cam</tspan><tspan x="3.13" y="0" class="st8 st9 st10">p</tspan><tspan x="3.58" y="0" class="st8 st9 st10">ylobacter</tspan></text>
	<text transform="matrix(1 0 0 1 196.8184 92.9951)" class="st8 st9 st10">g__Odoribacter</text>
	<text transform="matrix(1 0 0 1 194.9165 92.2471)"><tspan x="0" y="0" class="st8 st9 st10">g__A</tspan><tspan x="2.05" y="0" class="st8 st9 st10">f</tspan><tspan x="2.34" y="0" class="st8 st9 st10">ipia</tspan></text>
	<text transform="matrix(1 0 0 1 198.6924 94.897)" class="st8 st9 st10">g__Bosea</text>
	<text transform="matrix(1 0 0 1 202.519 89.0254)"><tspan x="0" y="0" class="st8 st9 st10">g__</tspan><tspan x="1.38" y="0" class="st8 st9 st10">P</tspan><tspan x="1.88" y="0" class="st8 st9 st10">aenibacillus</tspan></text>
	<text transform="matrix(1 0 0 1 200.1465 82.9189)" class="st8 st9 st10">g__Mobiluncus</text>
	<text transform="matrix(1 0 0 1 194.4414 91.0337)" class="st8 st9 st10">g__SMB53</text>
	<text transform="matrix(1 0 0 1 190.1299 91.2871)" class="st8 st9 st10">g__Methylobacterium</text>
	<text transform="matrix(1 0 0 1 189.9453 87.7471)" class="st8 st9 st10">g__Peptoniphilus</text>
	<text transform="matrix(1 0 0 1 190.3008 89.9258)" class="st8 st9 st10">g__Propionibacterium</text>
	<text transform="matrix(1 0 0 1 191.6577 89.1597)" class="st8 st9 st10">g__Bradyrhizobium</text>
	<text transform="matrix(1 0 0 1 188.2603 91.0337)" class="st8 st9 st10">g__Phyllobacterium</text>
	<text transform="matrix(1 0 0 1 188.4546 89.4502)" class="st8 st9 st10">g__Caloramator</text>
	<text transform="matrix(1 0 0 1 202.4453 87.5166)" class="st8 st9 st10">g__Acinetobacter</text>
	<text transform="matrix(1 0 0 1 264.1182 63.3013)"><tspan x="0" y="0" class="st8 st9 st10">g__Bi</tspan><tspan x="2.26" y="0" class="st8 st9 st10">f</tspan><tspan x="2.55" y="0" class="st8 st9 st10">idobacterium</tspan></text>
	<text transform="matrix(1 0 0 1 227.6758 55.4541)" class="st8 st9 st10">g__Blautia</text>
	<text transform="matrix(1 0 0 1 199.1074 86.708)" class="st8 st9 st10">g__Clostridium</text>
	<text transform="matrix(1 0 0 1 199.9941 132.7568)" class="st8 st9 st10">g__Collinsella</text>
	<text transform="matrix(1 0 0 1 192.4424 97.9526)" class="st8 st9 st10">g__Corynebacterium</text>
	<text transform="matrix(1 0 0 1 197.7188 95.5435)"><tspan x="0" y="0" class="st8 st9 st10">g__Desulf</tspan><tspan x="3.85" y="0" class="st8 st9 st10">o</tspan><tspan x="4.29" y="0" class="st8 st9 st10">vibrio</tspan></text>
	<text transform="matrix(1 0 0 1 204.1299 84.1279)" class="st8 st9 st10">g__Dorea</text>
	<text transform="matrix(1 0 0 1 190.167 94.708)" class="st8 st9 st10">g__Enterobacter</text>
	<text transform="matrix(1 0 0 1 188.0435 84.9082)" class="st8 st9 st10">g__Fusobacterium</text>
	<text transform="matrix(1 0 0 1 196.1167 91.3892)"><tspan x="0" y="0" class="st8 st9 st10">g__M</tspan><tspan x="2.21" y="0" class="st8 st9 st10">e</tspan><tspan x="2.6" y="0" class="st8 st9 st10">gasphaera</tspan></text>
	<text transform="matrix(1 0 0 1 192.9272 87.5205)" class="st8 st9 st10">g__Streptococcus</text>
	<text transform="matrix(1 0 0 1 222.9902 100.4175)"><tspan x="0" y="0" class="st8 st9 st10">g__</tspan><tspan x="1.38" y="0" class="st8 st9 st10">V</tspan><tspan x="1.95" y="0" class="st8 st9 st10">eillonella</tspan></text>
	<text transform="matrix(1 0 0 1 200.1743 93.5957)" class="st8 st9 st10">g__Lachnobacterium</text>
	<text transform="matrix(1 0 0 1 160.0117 34.9092)"><tspan x="0" y="0" class="st11 st12">cont</tspan><tspan x="13.64" y="0" class="st11 st12">r</tspan><tspan x="16.03" y="0" class="st11 st12">ol net</tspan><tspan x="33.26" y="0" class="st11 st12">w</tspan><tspan x="38.16" y="0" class="st11 st12">ork</tspan></text>
	<path class="st6" d="M165.71,160.88c0-0.68,0.56-1.25,1.25-1.25c0.68,0,1.25,0.56,1.25,1.25c0,0.69-0.56,1.25-1.25,1.25
		C166.27,162.12,165.71,161.56,165.71,160.88"/>
	<path class="st17" d="M165.71,160.88c0-0.68,0.56-1.25,1.25-1.25c0.68,0,1.25,0.56,1.25,1.25c0,0.69-0.56,1.25-1.25,1.25
		C166.27,162.12,165.71,161.56,165.71,160.88"/>
	<path class="st7" d="M165.71,154.11c0-0.69,0.56-1.25,1.25-1.25c0.68,0,1.25,0.56,1.25,1.25c0,0.68-0.56,1.25-1.25,1.25
		C166.27,155.36,165.71,154.79,165.71,154.11"/>
	<path class="st17" d="M165.71,154.11c0-0.69,0.56-1.25,1.25-1.25c0.68,0,1.25,0.56,1.25,1.25c0,0.68-0.56,1.25-1.25,1.25
		C166.27,155.36,165.71,154.79,165.71,154.11"/>
	<text transform="matrix(1 0 0 1 173.6602 162.8657)" class="st15 st16">others</text>
	<text transform="matrix(1 0 0 1 173.6602 156.0986)"><tspan x="0" y="0" class="st15 st16">impo</tspan><tspan x="12.01" y="0" class="st15 st16">r</tspan><tspan x="14.07" y="0" class="st15 st16">tant taxon</tspan></text>
</g>
<g>
	<polygon class="st0" points="466.36,183.14 464.01,183.1 461.66,183.03 459.31,182.94 456.96,182.82 454.62,182.67 452.28,182.5 
		449.95,182.3 447.62,182.08 445.3,181.83 442.98,181.55 440.67,181.24 438.38,180.91 436.09,180.56 433.81,180.18 431.54,179.77 
		429.29,179.34 427.04,178.88 424.81,178.39 422.59,177.89 420.39,177.35 418.2,176.79 416.02,176.21 413.87,175.6 411.72,174.97 
		409.6,174.31 407.49,173.63 405.4,172.93 403.34,172.2 401.29,171.45 399.26,170.68 397.25,169.88 395.27,169.07 393.3,168.22 
		391.36,167.36 389.45,166.47 387.56,165.57 385.69,164.64 383.85,163.69 382.03,162.72 380.24,161.73 378.48,160.72 376.74,159.69 
		375.04,158.64 373.36,157.57 371.71,156.49 370.09,155.38 368.5,154.26 366.94,153.11 365.41,151.95 363.91,150.78 362.44,149.59 
		361.01,148.38 359.62,147.15 358.24,145.91 356.92,144.66 355.61,143.38 354.35,142.1 353.12,140.8 351.93,139.49 350.77,138.16 
		349.65,136.82 348.56,135.47 347.51,134.1 346.49,132.73 345.52,131.34 344.58,129.94 343.68,128.53 342.81,127.12 341.99,125.69 
		341.21,124.25 340.46,122.8 339.75,121.35 339.08,119.89 338.45,118.42 337.87,116.95 337.32,115.47 336.8,113.97 336.34,112.48 
		335.91,110.98 335.52,109.48 335.17,107.97 334.87,106.46 334.6,104.95 334.37,103.43 334.19,101.91 334.04,100.39 333.94,98.87 
		333.88,97.34 333.86,95.82 333.88,94.29 333.94,92.77 334.04,91.25 334.19,89.73 334.37,88.2 334.6,86.69 334.87,85.18 
		335.17,83.66 335.52,82.16 335.91,80.65 336.34,79.15 336.8,77.66 337.32,76.17 337.87,74.69 338.45,73.22 339.08,71.74 
		339.75,70.29 340.46,68.83 341.21,67.39 341.99,65.95 342.81,64.52 343.68,63.1 344.58,61.7 345.52,60.3 346.49,58.91 
		347.51,57.53 348.56,56.17 349.65,54.82 350.77,53.48 351.93,52.15 353.12,50.84 354.35,49.54 355.61,48.25 356.92,46.98 
		358.24,45.72 359.62,44.48 361.01,43.26 362.44,42.05 363.91,40.85 365.41,39.68 366.94,38.52 368.5,37.38 370.09,36.26 
		371.71,35.15 373.36,34.06 375.04,32.99 376.74,31.95 378.48,30.92 380.24,29.91 382.03,28.92 383.85,27.95 385.69,27 
		387.56,26.07 389.45,25.17 391.36,24.28 393.3,23.42 395.27,22.57 397.25,21.75 399.26,20.96 401.29,20.18 403.34,19.43 
		405.4,18.71 407.49,18 409.6,17.32 411.72,16.67 413.87,16.03 416.02,15.43 418.2,14.84 420.39,14.29 422.59,13.75 424.81,13.24 
		427.04,12.76 429.29,12.3 431.54,11.87 433.81,11.46 436.09,11.08 438.38,10.72 440.67,10.39 442.98,10.09 445.3,9.81 447.62,9.56 
		449.95,9.33 452.28,9.13 454.62,8.96 456.96,8.82 459.31,8.7 461.66,8.6 464.01,8.54 466.36,8.5 	"/>
	<polygon class="st1" points="482.2,8.48 484.55,8.5 486.91,8.54 489.26,8.6 491.61,8.7 493.96,8.82 496.3,8.96 498.64,9.13 
		500.97,9.33 503.3,9.56 505.62,9.81 507.93,10.09 510.24,10.39 512.53,10.72 514.82,11.08 517.1,11.46 519.37,11.87 521.63,12.3 
		523.87,12.76 526.11,13.24 528.33,13.75 530.53,14.29 532.72,14.84 534.89,15.43 537.05,16.03 539.19,16.67 541.32,17.32 
		543.42,18 545.51,18.71 547.58,19.43 549.63,20.18 551.66,20.96 553.66,21.75 555.65,22.57 557.61,23.42 559.55,24.28 
		561.47,25.17 563.36,26.07 565.23,27 567.07,27.95 568.89,28.92 570.68,29.91 572.44,30.92 574.17,31.95 575.88,32.99 
		577.56,34.06 579.21,35.15 580.83,36.26 582.42,37.38 583.98,38.52 585.51,39.68 587,40.85 588.47,42.05 589.9,43.26 591.3,44.48 
		592.67,45.72 594,46.98 595.3,48.25 596.57,49.54 597.79,50.84 598.99,52.15 600.15,53.48 601.27,54.82 602.36,56.17 603.41,57.53 
		604.42,58.91 605.4,60.3 606.34,61.7 607.24,63.1 608.1,64.52 608.92,65.95 609.71,67.39 610.46,68.83 611.17,70.29 611.83,71.74 
		612.46,73.22 613.05,74.69 613.6,76.17 614.11,77.66 614.58,79.15 615.01,80.65 615.4,82.16 615.75,83.66 616.05,85.18 
		616.32,86.69 616.54,88.2 616.73,89.73 616.87,91.25 616.97,92.77 617.04,94.29 617.06,95.82 617.04,97.34 616.97,98.87 
		616.87,100.39 616.73,101.91 616.54,103.43 616.32,104.95 616.05,106.46 615.75,107.97 615.4,109.48 615.01,110.98 614.58,112.48 
		614.11,113.97 613.6,115.47 613.05,116.95 612.46,118.42 611.83,119.89 611.17,121.35 610.46,122.8 609.71,124.25 608.92,125.69 
		608.1,127.12 607.24,128.53 606.34,129.94 605.4,131.34 604.42,132.73 603.41,134.1 602.36,135.47 601.27,136.82 600.15,138.16 
		598.99,139.49 597.79,140.8 596.57,142.1 595.3,143.38 594,144.66 592.67,145.91 591.3,147.15 589.9,148.38 588.47,149.59 
		587,150.78 585.51,151.95 583.98,153.11 582.42,154.26 580.83,155.38 579.21,156.49 577.56,157.57 575.88,158.64 574.17,159.69 
		572.44,160.72 570.68,161.73 568.89,162.72 567.07,163.69 565.23,164.64 563.36,165.57 561.47,166.47 559.55,167.36 557.61,168.22 
		555.65,169.07 553.66,169.88 551.66,170.68 549.63,171.45 547.58,172.2 545.51,172.93 543.42,173.63 541.32,174.31 539.19,174.97 
		537.05,175.6 534.89,176.21 532.72,176.79 530.53,177.35 528.33,177.89 526.11,178.39 523.87,178.88 521.63,179.34 519.37,179.77 
		517.1,180.18 514.82,180.56 512.53,180.91 510.24,181.24 507.93,181.55 505.62,181.83 503.3,182.08 500.97,182.3 498.64,182.5 
		496.3,182.67 493.96,182.82 491.61,182.94 489.26,183.03 486.91,183.1 484.55,183.14 482.2,183.15 	"/>
	<line class="st2" x1="441.7" y1="91.05" x2="437.43" y2="80.91"/>
	<line class="st3" x1="430.1" y1="93.76" x2="436.8" y2="80.88"/>
	<line class="st3" x1="436.57" y1="97.95" x2="437.12" y2="80.96"/>
	<line class="st2" x1="442.84" y1="106.33" x2="448.83" y2="107.84"/>
	<line class="st3" x1="437.56" y1="128.89" x2="439.98" y2="124.47"/>
	<line class="st2" x1="435.87" y1="116.3" x2="439.95" y2="123.18"/>
	<line class="st3" x1="433.93" y1="128.69" x2="439.74" y2="124.27"/>
	<line class="st2" x1="435.94" y1="108.78" x2="440.13" y2="123.1"/>
	<line class="st2" x1="427.82" y1="100.06" x2="432.62" y2="96.05"/>
	<line class="st3" x1="430.94" y1="74.28" x2="433.12" y2="94.83"/>
	<line class="st2" x1="435.41" y1="114.93" x2="433.28" y2="96.3"/>
	<line class="st2" x1="439.54" y1="105.91" x2="433.58" y2="96.2"/>
	<line class="st3" x1="429.43" y1="106.09" x2="432.94" y2="96.27"/>
	<line class="st3" x1="432.67" y1="100.74" x2="433.12" y2="96.3"/>
	<line class="st2" x1="420.96" y1="95.88" x2="426.65" y2="100.09"/>
	<line class="st2" x1="434.17" y1="114.76" x2="427.57" y2="101.21"/>
	<line class="st5" x1="364.79" y1="109.33" x2="426.51" y2="100.64"/>
	<line class="st2" x1="422.91" y1="87.25" x2="427.02" y2="99.83"/>
	<line class="st2" x1="432.33" y1="112.87" x2="427.53" y2="101.23"/>
	<line class="st2" x1="420.5" y1="107.45" x2="426.73" y2="101.07"/>
	<line class="st3" x1="431.71" y1="88.71" x2="427.51" y2="99.85"/>
	<line class="st3" x1="428.32" y1="82.74" x2="427.29" y2="99.8"/>
	<line class="st3" x1="427.56" y1="91.91" x2="427.27" y2="99.8"/>
	<line class="st3" x1="428.96" y1="106.08" x2="427.46" y2="101.25"/>
	<line class="st3" x1="429.48" y1="95.1" x2="427.53" y2="99.85"/>
	<line class="st3" x1="431.86" y1="101.35" x2="427.98" y2="100.67"/>
	<line class="st3" x1="435.01" y1="116.22" x2="426.58" y2="125.92"/>
	<line class="st2" x1="432.64" y1="128.88" x2="426.79" y2="126.74"/>
	<line class="st2" x1="422.96" y1="119.9" x2="425.78" y2="125.81"/>
	<line class="st2" x1="424.73" y1="111.11" x2="426.03" y2="125.74"/>
	<line class="st2" x1="422.5" y1="87.27" x2="420.55" y2="94.71"/>
	<line class="st2" x1="420.01" y1="107.24" x2="420.35" y2="96.17"/>
	<line class="st2" x1="441.76" y1="92.43" x2="440.2" y2="96.95"/>
	<line class="st2" x1="435.67" y1="114.94" x2="439.78" y2="98.37"/>
	<line class="st3" x1="432.44" y1="88.59" x2="439.48" y2="97.09"/>
	<line class="st3" x1="441.94" y1="105.43" x2="440.14" y2="98.37"/>
	<line class="st2" x1="440.03" y1="105.8" x2="441.89" y2="92.47"/>
	<line class="st3" x1="442.12" y1="105.41" x2="442" y2="92.47"/>
	<line class="st3" x1="436" y1="107.37" x2="441.73" y2="92.42"/>
	<line class="st2" x1="428.55" y1="120.55" x2="433.94" y2="115.91"/>
	<line class="st2" x1="433.14" y1="114.08" x2="433.97" y2="114.91"/>
	<line class="st2" x1="442.17" y1="118.98" x2="435.17" y2="115.74"/>
	<line class="st2" x1="433.4" y1="128.39" x2="434.43" y2="116.17"/>
	<line class="st2" x1="439.54" y1="107.17" x2="434.88" y2="114.8"/>
	<line class="st3" x1="441.65" y1="106.72" x2="434.97" y2="114.86"/>
	<line class="st3" x1="427.21" y1="131.91" x2="434.19" y2="116.11"/>
	<line class="st3" x1="432.69" y1="102.21" x2="434.4" y2="114.69"/>
	<line class="st2" x1="422.71" y1="85.81" x2="423.17" y2="70.18"/>
	<line class="st3" x1="430.2" y1="73.19" x2="423.84" y2="69.79"/>
	<line class="st2" x1="419.97" y1="56.47" x2="423.01" y2="68.73"/>
	<line class="st2" x1="432.81" y1="114.27" x2="437" y2="128.82"/>
	<line class="st2" x1="438.76" y1="147.72" x2="437.26" y2="130.28"/>
	<line class="st3" x1="435.58" y1="116.4" x2="437.11" y2="128.8"/>
	<line class="st2" x1="434.07" y1="129.21" x2="436.47" y2="129.46"/>
	<line class="st3" x1="432.04" y1="136.07" x2="436.74" y2="130.12"/>
	<line class="st2" x1="431.42" y1="135.93" x2="428.15" y2="121.75"/>
	<line class="st3" x1="423.34" y1="119.47" x2="427.28" y2="120.79"/>
	<line class="st3" x1="429.12" y1="107.53" x2="428.05" y2="120.29"/>
	<line class="st5" x1="447.19" y1="97.69" x2="364.79" y2="109.33"/>
	<line class="st2" x1="417.74" y1="98.84" x2="422.41" y2="87.23"/>
	<line class="st3" x1="429.27" y1="93.86" x2="423.18" y2="87.1"/>
	<line class="st2" x1="432.74" y1="114.29" x2="436.13" y2="133.61"/>
	<line class="st2" x1="443.52" y1="135.67" x2="436.99" y2="134.47"/>
	<line class="st2" x1="433.7" y1="129.78" x2="435.89" y2="133.69"/>
	<line class="st3" x1="430.52" y1="126.53" x2="435.82" y2="133.74"/>
	<line class="st2" x1="433.3" y1="128.39" x2="432.65" y2="114.3"/>
	<line class="st2" x1="439.4" y1="107.05" x2="433.15" y2="113.05"/>
	<line class="st3" x1="430.23" y1="125.2" x2="432.46" y2="114.28"/>
	<line class="st3" x1="429.87" y1="95.15" x2="432.5" y2="112.83"/>
	<line class="st3" x1="432.59" y1="102.22" x2="432.61" y2="112.82"/>
	<line class="st3" x1="436.36" y1="99.41" x2="432.8" y2="112.84"/>
	<line class="st3" x1="435.37" y1="108.71" x2="432.98" y2="112.91"/>
	<line class="st2" x1="444.19" y1="135.06" x2="442.9" y2="120.04"/>
	<line class="st2" x1="440.1" y1="107.26" x2="442.67" y2="118.57"/>
	<line class="st3" x1="442.17" y1="106.89" x2="442.8" y2="118.55"/>
	<line class="st2" x1="435.52" y1="114.92" x2="436.38" y2="92.54"/>
	<line class="st3" x1="432.53" y1="88.49" x2="435.84" y2="91.32"/>
	<line class="st3" x1="428.32" y1="91.22" x2="435.67" y2="91.75"/>
	<line class="st3" x1="432.86" y1="100.79" x2="436.13" y2="92.49"/>
	<line class="st2" x1="431.72" y1="135.92" x2="435.36" y2="116.39"/>
	<line class="st3" x1="430.61" y1="126.45" x2="432.81" y2="128.61"/>
	<line class="st3" x1="441.39" y1="106.28" x2="440.66" y2="106.41"/>
	<line class="st3" x1="447.43" y1="98.14" x2="440.43" y2="105.98"/>
	<line class="st3" x1="436.43" y1="107.81" x2="439.23" y2="106.79"/>
	<line class="st3" x1="422.47" y1="118.51" x2="420.16" y2="108.71"/>
	<line class="st2" x1="428.18" y1="90.74" x2="431.36" y2="88.45"/>
	<line class="st2" x1="429.29" y1="106.06" x2="431.86" y2="88.75"/>
	<line class="st2" x1="430.01" y1="93.71" x2="431.72" y2="88.72"/>
	<line class="st2" x1="424.25" y1="109.76" x2="417.88" y2="100.15"/>
	<line class="st2" x1="424.5" y1="111.1" x2="422.81" y2="118.51"/>
	<line class="st2" x1="428.84" y1="107.45" x2="422.99" y2="118.57"/>
	<line class="st2" x1="426.68" y1="131.88" x2="422.87" y2="119.94"/>
	<line class="st2" x1="427.64" y1="90.43" x2="428.3" y2="82.74"/>
	<line class="st2" x1="429.68" y1="93.68" x2="428.45" y2="82.74"/>
	<line class="st2" x1="432.44" y1="100.75" x2="428.53" y2="82.73"/>
	<line class="st3" x1="448.43" y1="97.04" x2="453.78" y2="91.29"/>
	<line class="st2" x1="429.1" y1="106.05" x2="427.66" y2="91.91"/>
	<line class="st2" x1="429.35" y1="93.8" x2="428" y2="91.79"/>
	<line class="st2" x1="432.27" y1="100.81" x2="427.91" y2="91.84"/>
	<line class="st2" x1="428.6" y1="107.25" x2="425.24" y2="109.91"/>
	<line class="st2" x1="435.01" y1="108.22" x2="425.39" y2="110.22"/>
	<line class="st2" x1="429.21" y1="107.53" x2="430.04" y2="125.19"/>
	<line class="st2" x1="433.26" y1="101.81" x2="441.46" y2="105.82"/>
	<line class="st2" x1="429.73" y1="95.16" x2="429.21" y2="106.05"/>
	<line class="st2" x1="432.19" y1="102.1" x2="429.58" y2="106.16"/>
	<line class="st2" x1="436.05" y1="99.25" x2="429.68" y2="106.24"/>
	<line class="st2" x1="435.01" y1="107.92" x2="429.91" y2="106.93"/>
	<line class="st2" x1="432.32" y1="100.79" x2="430.04" y2="95.1"/>
	<line class="st2" x1="435.8" y1="107.33" x2="436.48" y2="99.43"/>
	<path class="st6" d="M441.25,91.73c0-0.41,0.34-0.74,0.74-0.74c0.41,0,0.74,0.33,0.74,0.74c0,0.41-0.34,0.74-0.74,0.74
		C441.59,92.47,441.25,92.14,441.25,91.73"/>
	<path class="st6" d="M429.02,94.41c0-0.41,0.33-0.74,0.74-0.74c0.41,0,0.74,0.33,0.74,0.74c0,0.41-0.33,0.74-0.74,0.74
		C429.36,95.16,429.02,94.82,429.02,94.41"/>
	<path class="st6" d="M435.81,98.7c0-0.41,0.34-0.74,0.74-0.74c0.41,0,0.74,0.33,0.74,0.74c0,0.41-0.34,0.74-0.74,0.74
		C436.14,99.43,435.81,99.1,435.81,98.7"/>
	<path class="st6" d="M441.39,106.15c0-0.41,0.33-0.74,0.74-0.74c0.41,0,0.74,0.34,0.74,0.74c0,0.41-0.33,0.74-0.74,0.74
		C441.72,106.89,441.39,106.56,441.39,106.15"/>
	<path class="st6" d="M436.46,129.53c0-0.41,0.33-0.74,0.74-0.74c0.41,0,0.74,0.33,0.74,0.74c0,0.41-0.33,0.74-0.74,0.74
		C436.79,130.28,436.46,129.95,436.46,129.53"/>
	<path class="st6" d="M434.75,115.66c0-0.41,0.34-0.74,0.74-0.74s0.74,0.33,0.74,0.74c0,0.41-0.34,0.74-0.74,0.74
		S434.75,116.07,434.75,115.66"/>
	<path class="st6" d="M432.6,129.13c0-0.41,0.33-0.74,0.74-0.74c0.41,0,0.74,0.33,0.74,0.74c0,0.41-0.33,0.74-0.74,0.74
		C432.93,129.88,432.6,129.54,432.6,129.13"/>
	<path class="st6" d="M435,108.07c0-0.41,0.33-0.74,0.74-0.74c0.41,0,0.74,0.33,0.74,0.74c0,0.41-0.33,0.74-0.74,0.74
		C435.33,108.8,435,108.47,435,108.07"/>
	<path class="st6" d="M426.5,100.54c0-0.41,0.34-0.74,0.74-0.74c0.41,0,0.74,0.34,0.74,0.74s-0.34,0.74-0.74,0.74
		C426.84,101.28,426.5,100.94,426.5,100.54"/>
	<path class="st6" d="M430.11,73.54c0-0.41,0.33-0.74,0.74-0.74c0.41,0,0.74,0.33,0.74,0.74c0,0.41-0.33,0.74-0.74,0.74
		C430.45,74.28,430.11,73.95,430.11,73.54"/>
	<path class="st6" d="M439.19,106.54c0-0.41,0.34-0.74,0.74-0.74c0.41,0,0.74,0.33,0.74,0.74c0,0.41-0.33,0.74-0.74,0.74
		C439.53,107.28,439.19,106.95,439.19,106.54"/>
	<path class="st6" d="M428.44,106.79c0-0.41,0.33-0.74,0.74-0.74c0.41,0,0.74,0.33,0.74,0.74c0,0.41-0.33,0.74-0.74,0.74
		C428.77,107.53,428.44,107.2,428.44,106.79"/>
	<path class="st6" d="M431.85,101.48c0-0.41,0.34-0.74,0.74-0.74s0.74,0.33,0.74,0.74c0,0.41-0.34,0.74-0.74,0.74
		S431.85,101.89,431.85,101.48"/>
	<path class="st6" d="M419.63,95.43c0-0.41,0.33-0.74,0.74-0.74c0.41,0,0.74,0.33,0.74,0.74c0,0.41-0.33,0.74-0.74,0.74
		C419.96,96.18,419.63,95.84,419.63,95.43"/>
	<path class="st6" d="M433.76,115.43c0-0.41,0.33-0.74,0.74-0.74c0.41,0,0.74,0.33,0.74,0.74c0,0.41-0.33,0.74-0.74,0.74
		C434.09,116.17,433.76,115.84,433.76,115.43"/>
	<path class="st7" d="M358.34,109.78c0-1.78,1.46-3.24,3.24-3.24c1.78,0,3.24,1.46,3.24,3.24c0,1.79-1.46,3.24-3.24,3.24
		C359.8,113.03,358.34,111.57,358.34,109.78"/>
	<path class="st6" d="M421.94,86.55c0-0.41,0.33-0.74,0.74-0.74c0.41,0,0.74,0.33,0.74,0.74c0,0.41-0.33,0.74-0.74,0.74
		C422.28,87.29,421.94,86.96,421.94,86.55"/>
	<path class="st6" d="M431.87,113.56c0-0.41,0.34-0.74,0.74-0.74c0.41,0,0.74,0.34,0.74,0.74c0,0.41-0.34,0.74-0.74,0.74
		C432.2,114.3,431.87,113.97,431.87,113.56"/>
	<path class="st6" d="M419.24,107.98c0-0.41,0.33-0.74,0.74-0.74c0.41,0,0.74,0.33,0.74,0.74c0,0.41-0.33,0.74-0.74,0.74
		C419.58,108.73,419.24,108.39,419.24,107.98"/>
	<path class="st6" d="M431.23,88.01c0-0.41,0.33-0.74,0.74-0.74c0.41,0,0.74,0.33,0.74,0.74c0,0.41-0.33,0.74-0.74,0.74
		C431.56,88.76,431.23,88.42,431.23,88.01"/>
	<path class="st6" d="M427.63,82c0-0.41,0.33-0.74,0.74-0.74c0.41,0,0.74,0.34,0.74,0.74c0,0.41-0.33,0.74-0.74,0.74
		C427.96,82.74,427.63,82.41,427.63,82"/>
	<path class="st6" d="M426.84,91.17c0-0.41,0.33-0.74,0.74-0.74c0.41,0,0.74,0.33,0.74,0.74c0,0.41-0.33,0.74-0.74,0.74
		C427.17,91.91,426.84,91.58,426.84,91.17"/>
	<path class="st6" d="M421.9,119.23c0-0.41,0.34-0.74,0.74-0.74s0.74,0.33,0.74,0.74c0,0.41-0.34,0.74-0.74,0.74
		S421.9,119.64,421.9,119.23"/>
	<path class="st6" d="M423.92,110.37c0-0.41,0.33-0.74,0.74-0.74c0.41,0,0.74,0.34,0.74,0.74s-0.33,0.74-0.74,0.74
		C424.25,111.12,423.92,110.78,423.92,110.37"/>
	<path class="st6" d="M427.25,121.03c0-0.41,0.33-0.74,0.74-0.74c0.41,0,0.74,0.33,0.74,0.74c0,0.41-0.33,0.74-0.74,0.74
		C427.58,121.77,427.25,121.44,427.25,121.03"/>
	<path class="st6" d="M442.1,119.3c0-0.41,0.34-0.74,0.74-0.74s0.74,0.33,0.74,0.74c0,0.41-0.34,0.74-0.74,0.74
		S442.1,119.7,442.1,119.3"/>
	<path class="st6" d="M426.17,132.59c0-0.41,0.33-0.74,0.74-0.74c0.41,0,0.74,0.34,0.74,0.74c0,0.41-0.33,0.74-0.74,0.74
		C426.5,133.33,426.17,133,426.17,132.59"/>
	<path class="st6" d="M419.04,55.75c0-0.41,0.34-0.74,0.74-0.74c0.41,0,0.74,0.33,0.74,0.74c0,0.41-0.34,0.74-0.74,0.74
		C419.38,56.49,419.04,56.16,419.04,55.75"/>
	<path class="st6" d="M438.09,148.46c0-0.41,0.34-0.74,0.74-0.74c0.41,0,0.74,0.34,0.74,0.74c0,0.41-0.34,0.74-0.74,0.74
		C438.42,149.2,438.09,148.86,438.09,148.46"/>
	<path class="st6" d="M430.84,136.65c0-0.41,0.33-0.74,0.74-0.74c0.41,0,0.74,0.33,0.74,0.74c0,0.41-0.33,0.74-0.74,0.74
		C431.17,137.39,430.84,137.06,430.84,136.65"/>
	<path class="st6" d="M447.18,97.58c0-0.41,0.34-0.74,0.74-0.74s0.74,0.34,0.74,0.74s-0.34,0.74-0.74,0.74
		S447.18,97.99,447.18,97.58"/>
	<path class="st6" d="M416.73,99.53c0-0.41,0.33-0.74,0.74-0.74c0.41,0,0.74,0.33,0.74,0.74c0,0.41-0.33,0.74-0.74,0.74
		C417.06,100.27,416.73,99.94,416.73,99.53"/>
	<path class="st6" d="M443.51,135.8c0-0.41,0.33-0.74,0.74-0.74c0.41,0,0.74,0.33,0.74,0.74c0,0.41-0.33,0.74-0.74,0.74
		C443.84,136.55,443.51,136.21,443.51,135.8"/>
	<path class="st6" d="M429.34,125.93c0-0.41,0.34-0.74,0.74-0.74s0.74,0.33,0.74,0.74c0,0.41-0.34,0.74-0.74,0.74
		S429.34,126.34,429.34,125.93"/>
	<path class="st6" d="M436.4,80.22c0-0.41,0.33-0.74,0.74-0.74c0.41,0,0.74,0.33,0.74,0.74c0,0.41-0.33,0.74-0.74,0.74
		C436.73,80.96,436.4,80.63,436.4,80.22"/>
	<path class="st6" d="M448.81,108.02c0-0.41,0.33-0.74,0.74-0.74c0.41,0,0.74,0.33,0.74,0.74c0,0.41-0.33,0.74-0.74,0.74
		C449.14,108.77,448.81,108.44,448.81,108.02"/>
	<path class="st6" d="M439.59,123.82c0-0.41,0.33-0.74,0.74-0.74c0.41,0,0.74,0.33,0.74,0.74c0,0.41-0.33,0.74-0.74,0.74
		C439.93,124.56,439.59,124.23,439.59,123.82"/>
	<path class="st6" d="M432.45,95.57c0-0.41,0.33-0.74,0.74-0.74c0.41,0,0.74,0.33,0.74,0.74c0,0.41-0.33,0.74-0.74,0.74
		C432.79,96.31,432.45,95.98,432.45,95.57"/>
	<path class="st6" d="M425.35,126.48c0-0.41,0.33-0.74,0.74-0.74c0.41,0,0.74,0.33,0.74,0.74c0,0.41-0.33,0.74-0.74,0.74
		C425.69,127.22,425.35,126.89,425.35,126.48"/>
	<path class="st6" d="M439.22,97.65c0-0.41,0.33-0.74,0.74-0.74c0.41,0,0.74,0.33,0.74,0.74c0,0.41-0.33,0.74-0.74,0.74
		C439.55,98.4,439.22,98.06,439.22,97.65"/>
	<path class="st6" d="M422.45,69.45c0-0.41,0.33-0.74,0.74-0.74c0.41,0,0.74,0.33,0.74,0.74c0,0.41-0.33,0.74-0.74,0.74
		C422.78,70.18,422.45,69.85,422.45,69.45"/>
	<path class="st6" d="M435.51,134.34c0-0.41,0.34-0.74,0.74-0.74s0.74,0.34,0.74,0.74c0,0.41-0.34,0.74-0.74,0.74
		S435.51,134.75,435.51,134.34"/>
	<path class="st6" d="M435.67,91.8c0-0.41,0.33-0.74,0.74-0.74c0.41,0,0.74,0.33,0.74,0.74c0,0.41-0.33,0.74-0.74,0.74
		C436,92.54,435.67,92.21,435.67,91.8"/>
	<path class="st6" d="M453.54,90.75c0-0.41,0.34-0.74,0.74-0.74c0.41,0,0.74,0.33,0.74,0.74c0,0.41-0.34,0.74-0.74,0.74
		C453.88,91.49,453.54,91.16,453.54,90.75"/>
	<text transform="matrix(1 0 0 1 439.304 91.9481)" class="st8 st9 st10">g__Collinsella</text>
	<text transform="matrix(1 0 0 1 427.9026 94.6298)"><tspan x="0" y="0" class="st8 st9 st10">g__A</tspan><tspan x="2.05" y="0" class="st8 st9 st10">f</tspan><tspan x="2.34" y="0" class="st8 st9 st10">ipia</tspan></text>
	<text transform="matrix(1 0 0 1 433.5476 98.9091)" class="st8 st9 st10">g__Caloramator</text>
	<text transform="matrix(1 0 0 1 438.385 106.3632)" class="st8 st9 st10">g__Phyllobacterium</text>
	<text transform="matrix(1 0 0 1 434.9187 129.7518)" class="st8 st9 st10">g__Dialister</text>
	<text transform="matrix(1 0 0 1 430.5935 115.8768)" class="st8 st9 st10">g__Phascolarctobacterium</text>
	<text transform="matrix(1 0 0 1 430.7923 129.3505)"><tspan x="0" y="0" class="st8 st9 st10">g__Pr</tspan><tspan x="2.21" y="0" class="st8 st9 st10">ev</tspan><tspan x="3.03" y="0" class="st8 st9 st10">otella</tspan></text>
	<text transform="matrix(1 0 0 1 433.3035 108.2792)" class="st8 st9 st10">g__Ralstonia</text>
	<text transform="matrix(1 0 0 1 424.3763 100.7548)" class="st8 st9 st10">g__Bacteroides</text>
	<text transform="matrix(1 0 0 1 427.8055 73.7567)" class="st8 st9 st10">g__Eubacterium</text>
	<text transform="matrix(1 0 0 1 437.3787 106.7558)"><tspan x="0" y="0" class="st8 st9 st10">g__Rose</tspan><tspan x="3.23" y="0" class="st8 st9 st10">b</tspan><tspan x="3.68" y="0" class="st8 st9 st10">uria</tspan></text>
	<text transform="matrix(1 0 0 1 425.0501 107.0048)" class="st8 st9 st10">g__Propionibacterium</text>
	<text transform="matrix(1 0 0 1 428.8767 101.6923)" class="st8 st9 st10">g__Bradyrhizobium</text>
	<text transform="matrix(1 0 0 1 418.3435 95.6454)" class="st8 st9 st10">g__Blautia</text>
	<text transform="matrix(1 0 0 1 431.3924 115.6415)" class="st8 st9 st10">g__Coprococcus</text>
	<text transform="matrix(1 0 0 1 358.5305 110.0009)" class="st8 st9 st10">g__Enterobacter</text>
	<text transform="matrix(1 0 0 1 419.5066 86.7548)" class="st8 st9 st10">g__Enterococcus</text>
	<text transform="matrix(1 0 0 1 429.6385 113.7763)" class="st8 st9 st10">g__Lachnospira</text>
	<text transform="matrix(1 0 0 1 416.5476 108.2001)" class="st8 st9 st10">g__Ruminococcus</text>
	<text transform="matrix(1 0 0 1 428.6873 88.2274)" class="st8 st9 st10">g__Streptococcus</text>
	<text transform="matrix(1 0 0 1 426.1629 82.2128)" class="st8 st9 st10">g__Bacillus</text>
	<text transform="matrix(1 0 0 1 423.4807 91.3847)" class="st8 st9 st10">g__Methylobacterium</text>
	<text transform="matrix(1 0 0 1 420.1897 119.4442)"><tspan x="0" y="0" class="st8 st9 st10">g__</tspan><tspan x="1.38" y="0" class="st8 st9 st10">W</tspan><tspan x="2.18" y="0" class="st8 st9 st10">eissella</tspan></text>
	<text transform="matrix(1 0 0 1 421.5838 110.5917)" class="st8 st9 st10">g__Micrococcus</text>
	<text transform="matrix(1 0 0 1 426.1668 121.2352)" class="st8 st9 st10">g__Dorea</text>
	<text transform="matrix(1 0 0 1 439.9178 119.5097)" class="st8 st9 st10">g__Oscillospira</text>
	<text transform="matrix(1 0 0 1 425.0867 132.7938)" class="st8 st9 st10">g__Bosea</text>
	<text transform="matrix(1 0 0 1 416.9768 55.9618)"><tspan x="0" y="0" class="st8 st9 st10">g__Mo</tspan><tspan x="2.67" y="0" class="st8 st9 st10">r</tspan><tspan x="2.96" y="0" class="st8 st9 st10">ganella</tspan></text>
	<text transform="matrix(1 0 0 1 435.6482 148.6679)" class="st8 st9 st10">g__Lactobacillus</text>
	<text transform="matrix(1 0 0 1 429.1165 136.8651)" class="st8 st9 st10">g__Sutterella</text>
	<text transform="matrix(1 0 0 1 445.157 97.7958)" class="st8 st9 st10">g__Salmonella</text>
	<text transform="matrix(1 0 0 1 414.7752 99.744)"><tspan x="0" y="0" class="st8 st9 st10">g__</tspan><tspan x="1.38" y="0" class="st8 st9 st10">V</tspan><tspan x="1.95" y="0" class="st8 st9 st10">eillonella</tspan></text>
	<text transform="matrix(1 0 0 1 440.6424 136.0204)"><tspan x="0" y="0" class="st8 st9 st10">g__</tspan><tspan x="1.38" y="0" class="st8 st9 st10">P</tspan><tspan x="1.88" y="0" class="st8 st9 st10">arabacteroides</tspan></text>
	<text transform="matrix(1 0 0 1 426.9334 126.1425)"><tspan x="0" y="0" class="st8 st9 st10">g__</tspan><tspan x="1.38" y="0" class="st8 st9 st10">P</tspan><tspan x="1.88" y="0" class="st8 st9 st10">aenibacillus</tspan></text>
	<text transform="matrix(1 0 0 1 433.1375 80.4364)" class="st8 st9 st10">g__Acidaminococcus</text>
	<text transform="matrix(1 0 0 1 446.2644 108.2421)" class="st8 st9 st10">g__Acinetobacter</text>
	<text transform="matrix(1 0 0 1 437.1853 124.0331)"><tspan x="0" y="0" class="st8 st9 st10">g__Ak</tspan><tspan x="2.51" y="0" class="st8 st9 st10">k</tspan><tspan x="2.97" y="0" class="st8 st9 st10">ermansia</tspan></text>
	<text transform="matrix(1 0 0 1 430.0906 95.7841)" class="st8 st9 st10">g__Anaerostipes</text>
	<text transform="matrix(1 0 0 1 422.3865 126.6962)"><tspan x="0" y="0" class="st8 st9 st10">g__Bi</tspan><tspan x="2.26" y="0" class="st8 st9 st10">f</tspan><tspan x="2.55" y="0" class="st8 st9 st10">idobacterium</tspan></text>
	<text transform="matrix(1 0 0 1 437.0603 97.87)" class="st8 st9 st10">g__Clostridium</text>
	<text transform="matrix(1 0 0 1 419.2898 69.6581)" class="st8 st9 st10">g__Corynebacterium</text>
	<text transform="matrix(1 0 0 1 432.3943 134.5575)"><tspan x="0" y="0" class="st8 st9 st10">g__</tspan><tspan x="1.38" y="0" class="st8 st9 st10">F</tspan><tspan x="1.88" y="0" class="st8 st9 st10">aecalibacterium</tspan></text>
	<text transform="matrix(1 0 0 1 433.0769 92.0175)"><tspan x="0" y="0" class="st8 st9 st10">g__</tspan><tspan x="1.38" y="0" class="st8 st9 st10">P</tspan><tspan x="1.88" y="0" class="st8 st9 st10">arapr</tspan><tspan x="3.78" y="0" class="st8 st9 st10">ev</tspan><tspan x="4.61" y="0" class="st8 st9 st10">otella</tspan></text>
	<text transform="matrix(1 0 0 1 450.7791 90.9647)"><tspan x="0" y="0" class="st8 st9 st10">g__Cam</tspan><tspan x="3.13" y="0" class="st8 st9 st10">p</tspan><tspan x="3.58" y="0" class="st8 st9 st10">ylobacter</tspan></text>
	<text transform="matrix(1 0 0 1 417.1941 34.9091)"><tspan x="0" y="0" class="st11 st12">case net</tspan><tspan x="25.86" y="0" class="st11 st12">w</tspan><tspan x="30.77" y="0" class="st11 st12">ork</tspan></text>
	<line class="st13" x1="384.17" y1="160.9" x2="397.58" y2="160.9"/>
	<line class="st14" x1="384.17" y1="153.64" x2="397.58" y2="153.64"/>
	<text transform="matrix(1 0 0 1 404.2786 162.8944)"><tspan x="0" y="0" class="st15 st16">positi</tspan><tspan x="12.93" y="0" class="st15 st16">v</tspan><tspan x="15.56" y="0" class="st15 st16">e correlation</tspan></text>
	<text transform="matrix(1 0 0 1 404.2786 155.6288)"><tspan x="0" y="0" class="st15 st16">negati</tspan><tspan x="15.09" y="0" class="st15 st16">v</tspan><tspan x="17.72" y="0" class="st15 st16">e correlation</tspan></text>
	<line class="st3" x1="536.09" y1="125.15" x2="535.26" y2="130.05"/>
	<line class="st2" x1="596.23" y1="62.86" x2="594.87" y2="53.08"/>
	<line class="st2" x1="559.71" y1="120.03" x2="555.91" y2="121.68"/>
	<line class="st2" x1="558.92" y1="125.84" x2="555.76" y2="122.41"/>
	<line class="st2" x1="550.5" y1="120.77" x2="554.71" y2="121.79"/>
	<line class="st2" x1="538.25" y1="118.8" x2="540.69" y2="123.56"/>
	<line class="st2" x1="536.84" y1="124.47" x2="540.35" y2="124.18"/>
	<line class="st2" x1="545.81" y1="125.84" x2="541.59" y2="124.34"/>
	<line class="st3" x1="541.56" y1="121.17" x2="541.11" y2="123.5"/>
	<line class="st2" x1="545.44" y1="73.31" x2="544.75" y2="68.95"/>
	<line class="st3" x1="563.75" y1="123.23" x2="560.75" y2="120.22"/>
	<line class="st3" x1="544.61" y1="84.56" x2="545.85" y2="80.25"/>
	<line class="st3" x1="545.59" y1="74.58" x2="545.97" y2="78.99"/>
	<line class="st2" x1="549.37" y1="76.39" x2="546.48" y2="79.18"/>
	<line class="st2" x1="544.29" y1="85.8" x2="543.22" y2="90.29"/>
	<line class="st2" x1="542.82" y1="96.54" x2="543.04" y2="91.56"/>
	<line class="st3" x1="561.55" y1="131.16" x2="559.62" y2="126.89"/>
	<line class="st3" x1="563.64" y1="123.99" x2="559.92" y2="126"/>
	<line class="st2" x1="546.31" y1="126.68" x2="545.52" y2="131.91"/>
	<line class="st5" x1="547.71" y1="114.16" x2="592.37" y2="85.39"/>
	<line class="st5" x1="550.46" y1="76.06" x2="591.97" y2="83.38"/>
	<line class="st2" x1="536.37" y1="123.91" x2="537.79" y2="118.85"/>
	<line class="st3" x1="538.01" y1="110.19" x2="537.97" y2="117.59"/>
	<line class="st3" x1="541.14" y1="120.2" x2="538.51" y2="118.57"/>
	<line class="st3" x1="517.87" y1="102.88" x2="520.68" y2="106.18"/>
	<line class="st2" x1="516.78" y1="109.19" x2="520.54" y2="106.99"/>
	<line class="st2" x1="525.92" y1="107.26" x2="521.73" y2="106.74"/>
	<line class="st3" x1="549.25" y1="75.68" x2="546.12" y2="74.21"/>
	<line class="st2" x1="536.24" y1="98.88" x2="539.07" y2="102.27"/>
	<line class="st3" x1="538.15" y1="108.92" x2="539.34" y2="103.39"/>
	<line class="st3" x1="543.08" y1="104.95" x2="540.02" y2="103.09"/>
	<line class="st2" x1="542.46" y1="97.73" x2="539.81" y2="102.21"/>
	<line class="st2" x1="532.61" y1="94.37" x2="535.43" y2="97.88"/>
	<line class="st3" x1="532.18" y1="127.56" x2="535.69" y2="124.91"/>
	<line class="st2" x1="549.53" y1="121.16" x2="546.76" y2="125.51"/>
	<line class="st3" x1="548.71" y1="130.51" x2="546.71" y2="126.62"/>
	<line class="st2" x1="547.44" y1="115.1" x2="549.62" y2="120.04"/>
	<line class="st2" x1="544.58" y1="110.65" x2="546.82" y2="113.98"/>
	<line class="st3" x1="542.17" y1="111.25" x2="546.64" y2="114.16"/>
	<line class="st3" x1="538.66" y1="109.61" x2="543.59" y2="110.06"/>
	<line class="st3" x1="543.71" y1="105.92" x2="544.15" y2="109.48"/>
	<line class="st2" x1="537.41" y1="109.33" x2="532.75" y2="107.58"/>
	<line class="st2" x1="527.19" y1="107.34" x2="531.51" y2="107.36"/>
	<line class="st2" x1="528.58" y1="112.23" x2="525.16" y2="115.42"/>
	<line class="st2" x1="537.6" y1="112.53" x2="537.93" y2="110.18"/>
	<line class="st2" x1="535.59" y1="110.41" x2="537.41" y2="109.76"/>
	<line class="st2" x1="528.73" y1="111.24" x2="526.87" y2="107.9"/>
	<line class="st2" x1="543.41" y1="97.03" x2="547.41" y2="96.05"/>
	<line class="st2" x1="542.01" y1="114.3" x2="541.7" y2="111.54"/>
	<line class="st2" x1="538.08" y1="112.86" x2="541.07" y2="111.21"/>
	<line class="st2" x1="543.41" y1="105.89" x2="541.85" y2="110.3"/>
	<line class="st2" x1="535.62" y1="110.65" x2="540.99" y2="110.87"/>
	<line class="st3" x1="534.35" y1="110.74" x2="529.67" y2="111.68"/>
	<line class="st2" x1="538.12" y1="113.4" x2="541.48" y2="114.7"/>
	<line class="st2" x1="535.43" y1="111.08" x2="537.06" y2="112.71"/>
	<line class="st2" x1="533.24" y1="116.34" x2="537" y2="113.55"/>
	<path class="st6" d="M535.55,124.52c0-0.35,0.29-0.64,0.64-0.64c0.36,0,0.64,0.29,0.64,0.64c0,0.36-0.29,0.64-0.64,0.64
		C535.85,125.16,535.55,124.88,535.55,124.52"/>
	<path class="st6" d="M595.68,63.49c0-0.35,0.29-0.64,0.64-0.64c0.36,0,0.64,0.29,0.64,0.64s-0.29,0.64-0.64,0.64
		C595.97,64.13,595.68,63.84,595.68,63.49"/>
	<path class="st6" d="M559.65,119.77c0-0.35,0.29-0.64,0.64-0.64c0.35,0,0.64,0.29,0.64,0.64c0,0.36-0.29,0.64-0.64,0.64
		C559.94,120.41,559.65,120.13,559.65,119.77"/>
	<path class="st6" d="M558.72,126.31c0-0.36,0.29-0.64,0.64-0.64c0.35,0,0.64,0.29,0.64,0.64c0,0.35-0.29,0.64-0.64,0.64
		C559.01,126.95,558.72,126.66,558.72,126.31"/>
	<path class="st6" d="M549.24,120.62c0-0.36,0.29-0.64,0.64-0.64c0.36,0,0.64,0.29,0.64,0.64c0,0.35-0.29,0.64-0.64,0.64
		C549.53,121.26,549.24,120.97,549.24,120.62"/>
	<path class="st6" d="M537.32,118.23c0-0.35,0.29-0.64,0.64-0.64c0.36,0,0.64,0.29,0.64,0.64c0,0.35-0.29,0.64-0.64,0.64
		C537.61,118.87,537.32,118.58,537.32,118.23"/>
	<path class="st6" d="M545.77,126.05c0-0.35,0.29-0.64,0.64-0.64c0.36,0,0.64,0.29,0.64,0.64s-0.29,0.64-0.64,0.64
		C546.06,126.69,545.77,126.4,545.77,126.05"/>
	<path class="st6" d="M541.05,120.54c0-0.35,0.29-0.64,0.64-0.64c0.35,0,0.64,0.29,0.64,0.64c0,0.35-0.29,0.64-0.64,0.64
		C541.34,121.18,541.05,120.89,541.05,120.54"/>
	<path class="st6" d="M544.9,73.94c0-0.35,0.29-0.64,0.64-0.64c0.35,0,0.64,0.29,0.64,0.64s-0.29,0.64-0.64,0.64
		C545.19,74.58,544.9,74.29,544.9,73.94"/>
	<path class="st6" d="M563.56,123.68c0-0.35,0.29-0.64,0.64-0.64c0.36,0,0.64,0.29,0.64,0.64c0,0.36-0.29,0.64-0.64,0.64
		C563.85,124.32,563.56,124.04,563.56,123.68"/>
	<path class="st6" d="M543.79,85.18c0-0.35,0.29-0.64,0.64-0.64c0.35,0,0.64,0.29,0.64,0.64s-0.29,0.64-0.64,0.64
		C544.08,85.82,543.79,85.53,543.79,85.18"/>
	<path class="st6" d="M549.19,75.95c0-0.36,0.29-0.64,0.64-0.64c0.36,0,0.64,0.29,0.64,0.64c0,0.35-0.29,0.64-0.64,0.64
		C549.48,76.59,549.19,76.3,549.19,75.95"/>
	<path class="st6" d="M542.15,97.18c0-0.35,0.29-0.64,0.64-0.64c0.36,0,0.64,0.29,0.64,0.64c0,0.36-0.29,0.64-0.64,0.64
		C542.44,97.82,542.15,97.53,542.15,97.18"/>
	<path class="st6" d="M561.17,131.74c0-0.35,0.29-0.64,0.64-0.64c0.36,0,0.64,0.29,0.64,0.64s-0.29,0.64-0.64,0.64
		C561.46,132.38,561.17,132.09,561.17,131.74"/>
	<path class="st6" d="M546.54,114.51c0-0.35,0.29-0.64,0.64-0.64c0.36,0,0.64,0.29,0.64,0.64c0,0.36-0.29,0.64-0.64,0.64
		C546.82,115.15,546.54,114.87,546.54,114.51"/>
	<path class="st6" d="M537.38,109.55c0-0.35,0.29-0.64,0.64-0.64c0.36,0,0.64,0.29,0.64,0.64c0,0.36-0.29,0.64-0.64,0.64
		C537.66,110.19,537.38,109.9,537.38,109.55"/>
	<path class="st6" d="M516.81,102.39c0-0.35,0.29-0.64,0.64-0.64c0.35,0,0.64,0.29,0.64,0.64c0,0.36-0.29,0.64-0.64,0.64
		C517.1,103.03,516.81,102.74,516.81,102.39"/>
	<path class="st6" d="M515.59,109.52c0-0.36,0.29-0.64,0.64-0.64c0.36,0,0.64,0.29,0.64,0.64c0,0.35-0.29,0.64-0.64,0.64
		C515.88,110.16,515.59,109.87,515.59,109.52"/>
	<path class="st6" d="M525.92,107.34c0-0.35,0.29-0.64,0.64-0.64c0.36,0,0.64,0.29,0.64,0.64c0,0.36-0.29,0.64-0.64,0.64
		C526.2,107.98,525.92,107.69,525.92,107.34"/>
	<path class="st6" d="M535.19,98.39c0-0.36,0.29-0.64,0.64-0.64s0.64,0.29,0.64,0.64c0,0.35-0.29,0.64-0.64,0.64
		S535.19,98.74,535.19,98.39"/>
	<path class="st6" d="M542.99,105.28c0-0.35,0.29-0.64,0.64-0.64c0.35,0,0.64,0.29,0.64,0.64s-0.29,0.64-0.64,0.64
		C543.27,105.92,542.99,105.63,542.99,105.28"/>
	<path class="st6" d="M531.57,93.86c0-0.35,0.29-0.64,0.64-0.64c0.35,0,0.64,0.29,0.64,0.64c0,0.36-0.29,0.64-0.64,0.64
		C531.86,94.5,531.57,94.22,531.57,93.86"/>
	<path class="st6" d="M531.03,127.95c0-0.35,0.29-0.64,0.64-0.64c0.36,0,0.64,0.29,0.64,0.64s-0.29,0.64-0.64,0.64
		C531.32,128.59,531.03,128.3,531.03,127.95"/>
	<path class="st6" d="M548.36,131.08c0-0.35,0.29-0.64,0.64-0.64c0.36,0,0.64,0.29,0.64,0.64s-0.29,0.64-0.64,0.64
		C548.65,131.72,548.36,131.43,548.36,131.08"/>
	<path class="st6" d="M543.59,110.12c0-0.36,0.29-0.64,0.64-0.64c0.35,0,0.64,0.29,0.64,0.64c0,0.35-0.29,0.64-0.64,0.64
		C543.87,110.76,543.59,110.47,543.59,110.12"/>
	<path class="st6" d="M540.99,110.9c0-0.36,0.29-0.64,0.64-0.64c0.36,0,0.64,0.29,0.64,0.64c0,0.35-0.29,0.64-0.64,0.64
		C541.28,111.54,540.99,111.25,540.99,110.9"/>
	<path class="st6" d="M528.4,111.8c0-0.35,0.29-0.64,0.64-0.64c0.35,0,0.64,0.29,0.64,0.64s-0.29,0.64-0.64,0.64
		C528.7,112.44,528.4,112.15,528.4,111.8"/>
	<path class="st6" d="M536.87,113.17c0-0.36,0.29-0.64,0.64-0.64c0.36,0,0.64,0.29,0.64,0.64c0,0.35-0.29,0.64-0.64,0.64
		C537.17,113.81,536.87,113.52,536.87,113.17"/>
	<path class="st6" d="M534.34,110.62c0-0.35,0.29-0.64,0.64-0.64c0.36,0,0.64,0.29,0.64,0.64c0,0.36-0.29,0.64-0.64,0.64
		C534.63,111.26,534.34,110.97,534.34,110.62"/>
	<path class="st6" d="M541.44,114.93c0-0.35,0.29-0.64,0.64-0.64c0.36,0,0.64,0.29,0.64,0.64c0,0.36-0.29,0.64-0.64,0.64
		C541.73,115.58,541.44,115.29,541.44,114.93"/>
	<path class="st6" d="M532.09,116.73c0-0.36,0.29-0.64,0.64-0.64c0.35,0,0.64,0.29,0.64,0.64c0,0.35-0.29,0.64-0.64,0.64
		C532.38,117.36,532.09,117.08,532.09,116.73"/>
	<path class="st6" d="M534.52,130.68c0-0.36,0.29-0.64,0.64-0.64c0.35,0,0.64,0.29,0.64,0.64c0,0.35-0.29,0.64-0.64,0.64
		C534.8,131.33,534.52,131.03,534.52,130.68"/>
	<path class="st6" d="M594.14,52.44c0-0.35,0.29-0.64,0.64-0.64c0.36,0,0.64,0.29,0.64,0.64c0,0.36-0.29,0.64-0.64,0.64
		C594.43,53.09,594.14,52.8,594.14,52.44"/>
	<path class="st6" d="M554.69,121.94c0-0.35,0.29-0.64,0.64-0.64c0.36,0,0.64,0.29,0.64,0.64c0,0.35-0.29,0.64-0.64,0.64
		C554.97,122.58,554.69,122.29,554.69,121.94"/>
	<path class="st6" d="M540.34,124.12c0-0.35,0.29-0.64,0.64-0.64c0.35,0,0.64,0.29,0.64,0.64s-0.29,0.64-0.64,0.64
		C540.63,124.77,540.34,124.48,540.34,124.12"/>
	<path class="st6" d="M544.01,68.31c0-0.35,0.29-0.64,0.64-0.64c0.35,0,0.64,0.29,0.64,0.64c0,0.35-0.29,0.64-0.64,0.64
		C544.3,68.96,544.01,68.67,544.01,68.31"/>
	<path class="st6" d="M545.38,79.63c0-0.36,0.29-0.64,0.64-0.64s0.64,0.29,0.64,0.64c0,0.35-0.29,0.64-0.64,0.64
		S545.38,79.98,545.38,79.63"/>
	<path class="st6" d="M542.43,90.91c0-0.35,0.29-0.64,0.64-0.64s0.64,0.29,0.64,0.64c0,0.36-0.29,0.64-0.64,0.64
		S542.43,91.27,542.43,90.91"/>
	<path class="st6" d="M544.79,132.54c0-0.36,0.29-0.64,0.64-0.64c0.36,0,0.64,0.29,0.64,0.64c0,0.35-0.29,0.64-0.64,0.64
		C545.08,133.18,544.79,132.9,544.79,132.54"/>
	<path class="st7" d="M591.92,83.87c0-1.54,1.26-2.81,2.8-2.81s2.8,1.26,2.8,2.81s-1.26,2.8-2.8,2.8S591.92,85.41,591.92,83.87"/>
	<path class="st6" d="M520.46,106.66c0-0.35,0.29-0.64,0.64-0.64c0.36,0,0.64,0.29,0.64,0.64c0,0.36-0.29,0.64-0.64,0.64
		C520.75,107.3,520.46,107.02,520.46,106.66"/>
	<path class="st6" d="M538.84,102.76c0-0.35,0.29-0.64,0.64-0.64c0.35,0,0.64,0.29,0.64,0.64s-0.29,0.64-0.64,0.64
		C539.12,103.4,538.84,103.11,538.84,102.76"/>
	<path class="st6" d="M531.51,107.36c0-0.35,0.29-0.64,0.64-0.64c0.35,0,0.64,0.29,0.64,0.64c0,0.36-0.29,0.64-0.64,0.64
		C531.8,108,531.51,107.71,531.51,107.36"/>
	<path class="st6" d="M524.05,115.86c0-0.35,0.29-0.64,0.64-0.64s0.64,0.29,0.64,0.64c0,0.36-0.29,0.64-0.64,0.64
		S524.05,116.21,524.05,115.86"/>
	<path class="st6" d="M547.39,95.9c0-0.36,0.29-0.64,0.64-0.64c0.35,0,0.64,0.29,0.64,0.64c0,0.35-0.29,0.64-0.64,0.64
		C547.68,96.54,547.39,96.25,547.39,95.9"/>
	<text transform="matrix(1 0 0 1 533.2742 124.7392)" class="st8 st9 st10">g__Oscillospira</text>
	<text transform="matrix(1 0 0 1 593.8621 63.7079)" class="st8 st9 st10">g__Sutterella</text>
	<text transform="matrix(1 0 0 1 557.1936 119.9852)" class="st8 st9 st10">g__Coprococcus</text>
	<text transform="matrix(1 0 0 1 557.0779 126.5204)" class="st8 st9 st10">g__Dialister</text>
	<text transform="matrix(1 0 0 1 547.325 120.8339)"><tspan x="0" y="0" class="st8 st9 st10">g__Rose</tspan><tspan x="3.23" y="0" class="st8 st9 st10">b</tspan><tspan x="3.67" y="0" class="st8 st9 st10">uria</tspan></text>
	<text transform="matrix(1 0 0 1 534.1003 118.4481)"><tspan x="0" y="0" class="st8 st9 st10">g__</tspan><tspan x="1.38" y="0" class="st8 st9 st10">F</tspan><tspan x="1.88" y="0" class="st8 st9 st10">aecalibacterium</tspan></text>
	<text transform="matrix(1 0 0 1 542.8054 126.2665)"><tspan x="0" y="0" class="st8 st9 st10">g__</tspan><tspan x="1.38" y="0" class="st8 st9 st10">P</tspan><tspan x="1.88" y="0" class="st8 st9 st10">arabacteroides</tspan></text>
	<text transform="matrix(1 0 0 1 538.615 120.7509)" class="st8 st9 st10">g__Micrococcus</text>
	<text transform="matrix(1 0 0 1 542.5657 74.1581)" class="st8 st9 st10">g__Lachnospira</text>
	<text transform="matrix(1 0 0 1 560.9695 123.8993)" class="st8 st9 st10">g__Pseudomonas</text>
	<text transform="matrix(1 0 0 1 541.3845 85.3934)" class="st8 st9 st10">g__Eubacterium</text>
	<text transform="matrix(1 0 0 1 547.0574 76.161)" class="st8 st9 st10">g__Salmonella</text>
	<text transform="matrix(1 0 0 1 539.0437 97.3944)" class="st8 st9 st10">g__Catenibacterium</text>
	<text transform="matrix(1 0 0 1 558.6287 131.9579)" class="st8 st9 st10">g__Lactobacillus</text>
	<text transform="matrix(1 0 0 1 543.738 114.7274)" class="st8 st9 st10">g__Ruminococcus</text>
	<text transform="matrix(1 0 0 1 535.8127 109.7645)" class="st8 st9 st10">g__Bacillus</text>
	<text transform="matrix(1 0 0 1 514.2976 102.6063)" class="st8 st9 st10">g__Haemophilus</text>
	<text transform="matrix(1 0 0 1 511.972 109.7235)" class="st8 st9 st10">g__Peptostreptococcus</text>
	<text transform="matrix(1 0 0 1 523.0452 107.5536)"><tspan x="0" y="0" class="st8 st9 st10">g__Cam</tspan><tspan x="3.13" y="0" class="st8 st9 st10">p</tspan><tspan x="3.58" y="0" class="st8 st9 st10">ylobacter</tspan></text>
	<text transform="matrix(1 0 0 1 532.9275 98.5995)" class="st8 st9 st10">g__Odoribacter</text>
	<text transform="matrix(1 0 0 1 541.7625 105.495)"><tspan x="0" y="0" class="st8 st9 st10">g__A</tspan><tspan x="2.05" y="0" class="st8 st9 st10">f</tspan><tspan x="2.34" y="0" class="st8 st9 st10">ipia</tspan></text>
	<text transform="matrix(1 0 0 1 530.3889 94.0712)" class="st8 st9 st10">g__Bosea</text>
	<text transform="matrix(1 0 0 1 528.5242 128.164)"><tspan x="0" y="0" class="st8 st9 st10">g__</tspan><tspan x="1.38" y="0" class="st8 st9 st10">P</tspan><tspan x="1.88" y="0" class="st8 st9 st10">aenibacillus</tspan></text>
	<text transform="matrix(1 0 0 1 546.1062 131.2938)" class="st8 st9 st10">g__Mobiluncus</text>
	<text transform="matrix(1 0 0 1 542.0994 110.3378)" class="st8 st9 st10">g__SMB53</text>
	<text transform="matrix(1 0 0 1 537.5295 111.1132)" class="st8 st9 st10">g__Methylobacterium</text>
	<text transform="matrix(1 0 0 1 525.8147 112.0126)" class="st8 st9 st10">g__Peptoniphilus</text>
	<text transform="matrix(1 0 0 1 533.3894 113.3837)" class="st8 st9 st10">g__Propionibacterium</text>
	<text transform="matrix(1 0 0 1 531.2664 110.8358)" class="st8 st9 st10">g__Bradyrhizobium</text>
	<text transform="matrix(1 0 0 1 538.3376 115.1513)" class="st8 st9 st10">g__Phyllobacterium</text>
	<text transform="matrix(1 0 0 1 529.7292 116.9384)" class="st8 st9 st10">g__Caloramator</text>
	<text transform="matrix(1 0 0 1 531.8752 130.8964)" class="st8 st9 st10">g__Acinetobacter</text>
	<text transform="matrix(1 0 0 1 591.074 52.662)"><tspan x="0" y="0" class="st8 st9 st10">g__Bi</tspan><tspan x="2.26" y="0" class="st8 st9 st10">f</tspan><tspan x="2.55" y="0" class="st8 st9 st10">idobacterium</tspan></text>
	<text transform="matrix(1 0 0 1 553.302 122.1542)" class="st8 st9 st10">g__Blautia</text>
	<text transform="matrix(1 0 0 1 538.0837 124.3417)" class="st8 st9 st10">g__Clostridium</text>
	<text transform="matrix(1 0 0 1 541.9563 68.5321)" class="st8 st9 st10">g__Collinsella</text>
	<text transform="matrix(1 0 0 1 542.1277 79.8446)" class="st8 st9 st10">g__Corynebacterium</text>
	<text transform="matrix(1 0 0 1 539.8191 91.1308)"><tspan x="0" y="0" class="st8 st9 st10">g__Desulf</tspan><tspan x="3.85" y="0" class="st8 st9 st10">o</tspan><tspan x="4.29" y="0" class="st8 st9 st10">vibrio</tspan></text>
	<text transform="matrix(1 0 0 1 543.6086 132.747)" class="st8 st9 st10">g__Dorea</text>
	<text transform="matrix(1 0 0 1 591.6746 84.0829)" class="st8 st9 st10">g__Enterobacter</text>
	<text transform="matrix(1 0 0 1 517.6628 106.8798)" class="st8 st9 st10">g__Fusobacterium</text>
	<text transform="matrix(1 0 0 1 536.3342 102.9755)"><tspan x="0" y="0" class="st8 st9 st10">g__M</tspan><tspan x="2.21" y="0" class="st8 st9 st10">e</tspan><tspan x="2.6" y="0" class="st8 st9 st10">gasphaera</tspan></text>
	<text transform="matrix(1 0 0 1 528.8704 107.5683)" class="st8 st9 st10">g__Streptococcus</text>
	<text transform="matrix(1 0 0 1 521.9978 116.0751)"><tspan x="0" y="0" class="st8 st9 st10">g__</tspan><tspan x="1.38" y="0" class="st8 st9 st10">V</tspan><tspan x="1.95" y="0" class="st8 st9 st10">eillonella</tspan></text>
	<text transform="matrix(1 0 0 1 544.1072 96.1112)" class="st8 st9 st10">g__Lachnobacterium</text>
	<text transform="matrix(1 0 0 1 487.6648 34.9091)"><tspan x="0" y="0" class="st11 st12">cont</tspan><tspan x="13.64" y="0" class="st11 st12">r</tspan><tspan x="16.03" y="0" class="st11 st12">ol net</tspan><tspan x="33.26" y="0" class="st11 st12">w</tspan><tspan x="38.16" y="0" class="st11 st12">ork</tspan></text>
	<path class="st6" d="M493.37,160.88c0-0.68,0.56-1.25,1.25-1.25c0.68,0,1.25,0.56,1.25,1.25c0,0.69-0.56,1.25-1.25,1.25
		C493.92,162.12,493.37,161.56,493.37,160.88"/>
	<path class="st17" d="M493.37,160.88c0-0.68,0.56-1.25,1.25-1.25c0.68,0,1.25,0.56,1.25,1.25c0,0.69-0.56,1.25-1.25,1.25
		C493.92,162.12,493.37,161.56,493.37,160.88"/>
	<path class="st7" d="M493.37,154.11c0-0.69,0.56-1.25,1.25-1.25c0.68,0,1.25,0.56,1.25,1.25c0,0.68-0.56,1.25-1.25,1.25
		C493.92,155.36,493.37,154.79,493.37,154.11"/>
	<path class="st17" d="M493.37,154.11c0-0.69,0.56-1.25,1.25-1.25c0.68,0,1.25,0.56,1.25,1.25c0,0.68-0.56,1.25-1.25,1.25
		C493.92,155.36,493.37,154.79,493.37,154.11"/>
	<text transform="matrix(1 0 0 1 501.3133 162.8661)" class="st15 st16">others</text>
	<text transform="matrix(1 0 0 1 501.3133 156.0995)"><tspan x="0" y="0" class="st15 st16">impo</tspan><tspan x="12.01" y="0" class="st15 st16">r</tspan><tspan x="14.07" y="0" class="st15 st16">tant taxon</tspan></text>
</g>
</svg>
